<?xml version="1.0" encoding="utf-8"?>
<!-- Generator: Adobe Illustrator 19.0.0, SVG Export Plug-In . SVG Version: 6.00 Build 0)  -->
<svg version="1.1" id="Layer_1" xmlns="http://www.w3.org/2000/svg" xmlns:xlink="http://www.w3.org/1999/xlink" x="0px" y="0px"
	 viewBox="-1831.8 171.1 844.5 658.5" style="enable-background:new -1831.8 171.1 844.5 658.5;" xml:space="preserve">
<style type="text/css">
	.st0{fill:none;stroke:#000000;stroke-width:10;stroke-miterlimit:10;}
</style>
<g>
	<path d="M-1404.4,595.8V571c50.6-2.4,56.4-40.4,56.4-53.5v-27.8c0,0,0.1-6.8-5.1-6.8c-5.2,0-5.2,6.8-5.2,6.8v27.1
		c0,13.6-6.2,44.2-51.2,44.2s-51.2-30.6-51.2-44.2v-28.8c0,0,0-5.1-5.1-5.1s-5.1,5.1-5.1,5.1v29.4c0,13.1,5.8,51.1,56.4,53.5l0,0
		v24.7h-36.9V606h82v-10.2H-1404.4z"/>
	<path d="M-1408.5,401c-27.7,0-27.7,27.5-27.7,27.5v82.4c0,0,0,27.5,27.7,27.5c27.7,0,27.7-27.5,27.7-27.5v-82.4
		C-1380.9,428.5-1380.9,401-1408.5,401z M-1391.1,513.5c0,0,0,14.6-17.4,14.6c-17.4,0-17.4-14.6-17.4-14.6v-87.6
		c0,0,0-14.6,17.4-14.6c17.4,0,17.4,14.6,17.4,14.6V513.5z"/>
</g>
<circle class="st0" cx="-1411.1" cy="499.5" r="249.5"/>
</svg>
