<?xml version="1.0" encoding="utf-8"?>
<!-- Generator: Adobe Illustrator 18.1.0, SVG Export Plug-In . SVG Version: 6.00 Build 0)  -->
<svg version="1.1" id="Layer_1" xmlns="http://www.w3.org/2000/svg" xmlns:xlink="http://www.w3.org/1999/xlink" x="0px" y="0px"
	 viewBox="0 0 500 500" enable-background="new 0 0 500 500" xml:space="preserve">
<g>
	<g>
		<defs>
			<rect id="SVGID_1_" x="3.3" y="9.5" width="496.7" height="403.4"/>
		</defs>
		<clipPath id="SVGID_2_">
			<use xlink:href="#SVGID_1_"  overflow="visible"/>
		</clipPath>
		<path clip-path="url(#SVGID_2_)" fill="#C33D30" d="M43.4,402.6c103.8,9.8,143,10.6,190.7,10.1c45.6-1.4,79.9,5,118.4-35.8
			c40.3-41.8,35.6-63.6,11.2-56.8c-36.1,10.8-167.8,55.7-323.3,77.2C33.5,398.4,35.2,402.2,43.4,402.6"/>
	</g>
	<g>
		<defs>
			<rect id="SVGID_3_" x="3.3" y="9.5" width="496.7" height="403.4"/>
		</defs>
		<clipPath id="SVGID_4_">
			<use xlink:href="#SVGID_3_"  overflow="visible"/>
		</clipPath>
		<path clip-path="url(#SVGID_4_)" fill="#F8CB30" d="M8.3,391.4c106.3-27,372.2-170,411.6-195.3c19.5-12.1,41-4.9,6.6,51.1
			c-23.4,34.4-39.4,54.4-101.8,73.3c-43,16.2-202.1,62.6-313.6,76C2.6,397.2,0,394.2,8.3,391.4"/>
	</g>
	<g>
		<defs>
			<rect id="SVGID_5_" x="3.3" y="9.5" width="496.7" height="403.4"/>
		</defs>
		<clipPath id="SVGID_6_">
			<use xlink:href="#SVGID_5_"  overflow="visible"/>
		</clipPath>
		<path clip-path="url(#SVGID_6_)" fill="#5E8B4C" d="M18.8,383.9c92.7-32.5,294.5-138.8,363.3-181c49.4-30.2,87.7-52.4,102.7-90.2
			c31.9-86.3,7.6-121.4-22.8-94.5C423.2,56,240.8,247.5,7.3,382C3.7,384,3.2,388.7,18.8,383.9"/>
	</g>
</g>
</svg>
