<?xml version="1.0" encoding="utf-8"?>
<!-- Generator: Adobe Illustrator 18.1.0, SVG Export Plug-In . SVG Version: 6.00 Build 0)  -->
<svg version="1.1" id="Layer_1" xmlns="http://www.w3.org/2000/svg" xmlns:xlink="http://www.w3.org/1999/xlink" x="0px" y="0px"
	 viewBox="0 0 1733 722.9" enable-background="new 0 0 1733 722.9" xml:space="preserve">
<g>
	<defs>
		<rect id="SVGID_1_" y="170.1" width="917.7" height="382.8"/>
	</defs>
	<clipPath id="SVGID_2_">
		<use xlink:href="#SVGID_1_"  overflow="visible"/>
	</clipPath>
	<path clip-path="url(#SVGID_2_)" fill="#C43C30" d="M700.5,357.1c49.4,4.7,68,5,90.7,4.8c21.7-0.7,38,2.4,56.4-17
		c19.2-19.9,16.9-30.2,5.3-27c-17.2,5.2-79.9,26.5-153.8,36.8C695.8,355.1,696.6,356.9,700.5,357.1"/>
	<path clip-path="url(#SVGID_2_)" fill="#F9CB2F" d="M683.8,351.8c50.6-12.9,177.1-80.9,195.8-92.9c9.3-5.8,19.5-2.3,3.1,24.3
		C871.6,299.5,864,309,834.3,318c-20.4,7.7-96.2,29.8-149.2,36.2C681.1,354.5,679.9,353.1,683.8,351.8"/>
	<path clip-path="url(#SVGID_2_)" fill="#5E8C4D" d="M688.8,348.2c44.1-15.5,140.1-66,172.9-86.1c23.5-14.3,41.7-24.9,48.9-42.9
		c15.2-41.1,3.6-57.8-10.9-44.9c-18.5,17.9-105.3,109-216.4,173C681.6,348.3,681.3,350.5,688.8,348.2"/>
	<polygon clip-path="url(#SVGID_2_)" fill="#C43C30" points="0,444.6 11,436.7 11,342.3 0,334.4 84.9,334.4 84.9,353.3 70.8,342.3 
		26.7,342.3 26.7,381.6 58.2,381.6 70.8,372.2 70.8,399 58.2,389.5 26.7,389.5 26.7,436.7 72.4,436.7 88.1,424.1 88.1,444.6 	"/>
	<path clip-path="url(#SVGID_2_)" fill="#C43C30" d="M141.6,433.6l4.7,3.2c-2.2,4.4-10.3,10.2-20.7,10.2c-11,0-18.7-7.1-18.7-16.5
		v-58.2H91.3l31.5-22.1v15.7h23.6v6.3h-23.6v66.1c0,0,1.7,1.9,5.6,1.9C137.5,440.1,140.7,434.6,141.6,433.6"/>
	<path clip-path="url(#SVGID_2_)" fill="#C43C30" d="M151.1,444.6l11-7.9V347l-11-7.9l26.8-7.9v50.3l9-7.1
		c11.5-8.6,22.1-10.2,28.8-10.2c17.6,0,23.6,8.2,23.6,18.9v53.5l11,7.9h-26.8v-61.4c0-3.5-3-9.4-12.6-9.4c-5.8,0-14.2,1.6-22.9,8.5
		l-10.2,7.2v47.2l11,7.9H151.1z"/>
	<path clip-path="url(#SVGID_2_)" fill="#C43C30" d="M368.3,405.3c0-16.5-7.4-34.7-28.3-34.7c-20.7,0-28.3,18.2-28.3,34.7
		c0,16.4,7.6,34.6,28.3,34.6C360.9,439.9,368.3,421.7,368.3,405.3 M339.9,364.3c28.2,0,47.2,19.7,47.2,40.9
		c0,21.1-19.1,40.9-47.2,40.9c-27.9,0-47.2-19.8-47.2-40.9C292.7,384,312,364.3,339.9,364.3"/>
	<path clip-path="url(#SVGID_2_)" fill="#C43C30" d="M417.1,384.8v40.9c5.1,8.6,14.6,12.6,25.2,12.6c19.9,0,25.2-18.4,25.2-33
		c0-14.7-5.2-33.1-25.2-33.1C431.7,372.2,422.1,376,417.1,384.8 M390.3,476.1l11-7.9v-86.6l-11-7.8l26.8-7.9v9.5
		c7.3-9.6,22.1-11,31.5-11c23.1,0,37.8,20.5,37.8,40.9c0,19-14.6,40.9-37.8,40.9c-9.4,0-23.3-1.9-31.5-11v33l9.4,7.9H390.3z"/>
	<path clip-path="url(#SVGID_2_)" fill="#C43C30" d="M550.8,424.1c0,9.9,6.2,12.6,11,12.6c2.2,0,7-2.1,9.4-3.2l22-9.4v-20.4H576
		C560.9,403.7,550.8,411.5,550.8,424.1 M544.6,387.9v-17.3c7.2-4,21.4-6.3,31.5-6.3c21.8,0,33.1,6.7,33.1,18.9v53.5l11,7.9h-26.8
		V432l-29.9,12.6c-2.6,1.1-6.8,1.6-9.4,1.6c-11.1,0-20.5-7.9-20.5-20.5c0-15.4,17.5-28.3,37.8-28.3h22v-14.2
		c0-7.3-7.6-12.6-17.3-12.6c-5.3,0-9.4,1-13,3.8L544.6,387.9z"/>
	<path clip-path="url(#SVGID_2_)" fill="#C43C30" d="M686.2,364.3c22.1,0,26.8,11.6,26.8,18.9v53.5l11,7.9h-26.8v-61.4
		c0-3.9-3-9.4-15.7-9.4c-5.5,0-13.5-0.2-23.6,7.8l-9.5,7.9v47.2l11.1,7.9h-37.8l11-7.9v-55.1l-11-7.8l26.7-7.9v15.7l7.9-6.7
		C669.3,365.1,680.4,364.3,686.2,364.3"/>
	<polygon clip-path="url(#SVGID_2_)" fill="#C43C30" points="253.4,444.6 264.4,436.7 264.4,381.6 253.4,373.8 280.2,365.9 
		280.2,436.7 291.2,444.6 	"/>
	<path clip-path="url(#SVGID_2_)" fill="#C43C30" d="M262.8,350.2c0-3.5,3.9-6.3,8.7-6.3c4.7,0,8.7,2.8,8.7,6.3
		c0,3.5-3.9,6.3-8.7,6.3C266.7,356.5,262.8,353.6,262.8,350.2"/>
	<polygon clip-path="url(#SVGID_2_)" fill="#C43C30" points="491,444.6 502.1,436.7 502.1,381.6 491,373.8 517.8,365.9 517.8,436.7 
		528.8,444.6 	"/>
	<path clip-path="url(#SVGID_2_)" fill="#C43C30" d="M500.5,350.2c0-3.5,3.9-6.3,8.7-6.3c4.8,0,8.7,2.8,8.7,6.3
		c0,3.5-3.9,6.3-8.7,6.3C504.4,356.5,500.5,353.6,500.5,350.2"/>
	<path clip-path="url(#SVGID_2_)" fill="#C43C30" d="M340.1,530.3l8.4,6.5c1.3,0.8,2.8,1.9,2.8,4.5v7l-6.5,4.6h22.3l-6.5-4.6v-7.4
		c0-3.7-0.5-6.5-4-9.1l-9.3-7.4c-3.4-2.4-3.3-2.7-5.2-4c0,0,7.5,0.4,11.1,0.3c14.2,0.2,20.8-3.2,22.8-7.4c1.1-2.3,1.6-5.4,1.4-9.8
		c-0.2-4.6-0.6-5.1-1.7-7.3c-3.3-6-13.2-8.2-24.3-8.2c-10.2,0-21.2,3.4-24.6,11.2c-0.7,1.6-1.2,3.5-1.3,5.3c0,5.3-1.3,13.3,5.4,18.4
		L340.1,530.3z M335.4,503.6c0.1-7.8,6.3-11.8,15.8-11.9c9.2-0.1,16.1,2,15.9,11.2v3.3c-0.1,5-2,9.1-9.1,9.7
		c-9.4,0.7-12.1,0.8-19.4,0.1c-3.9-0.8-3.3-7.3-3.2-9.5V503.6z"/>
	<path clip-path="url(#SVGID_2_)" fill="#C43C30" d="M477.3,520.4v27.8l-6.5,4.6h22.2l-6.5-4.6v-27.8h16.7v10.2H519l-6.5-4.6v-9.2
		h-25.9v-14.8c0-3.7-1.9-4.6-4.7-4.6h-4.6v-9.3l-15.8,4.7l6.5,4.7v3.7h9.3v15.8h-25.9v9.2l-6.6,4.6h15.8v-10.2H477.3z"/>
	<path clip-path="url(#SVGID_2_)" fill="#C43C30" d="M563.7,506.2c-0.1,5-2,9.1-9.2,9.7c-9.3,0.7-12.2,0.8-19.5,0.1
		c-3.9-0.8-3.2-7.3-3.2-9.5v-3c0.1-7.8,6.3-11.8,15.8-11.9c9.2-0.1,16.1,2,16,11.2V506.2z M593.2,520.4l-6.5-4.7v-9.2h-12.9
		c0-1,0-2-0.1-3.1c-0.2-4.6-0.6-5.1-1.8-7.3c-3.3-6-13.1-8.2-24.3-8.2c-10.2,0-21.2,3.5-24.5,11.2c-0.7,1.6-1.2,3.5-1.4,5.3
		c0.1,5.3-1.2,13.3,5.5,18.4l9.4,7.5l8.4,6.5c1.3,0.8,2.8,1.9,2.7,4.5v7l-6.5,4.6h22.3l-6.5-4.6v-7.4c0-3.7-0.5-6.5-4-9l-9.3-7.4
		c-3.4-2.4-3.4-2.7-5.3-4c0,0,7.5,0.4,11.1,0.3c14.2,0.2,20.8-3.2,22.7-7.4c0.4-0.9,0.8-1.9,1-3h4v10.2H593.2z"/>
	<path clip-path="url(#SVGID_2_)" fill="#C43C30" d="M682.1,503.6c0.1-7.8,6.3-11.8,15.8-11.9c9.2-0.1,16.1,2,16,11.2v3.3
		c0,5-2,9.1-9.1,9.7c-9.3,0.7-12.2,0.8-19.5,0.1c-3.9-0.8-3.3-7.3-3.2-9.5V503.6z M688.8,520.3c0,0,7.5,0.4,11.1,0.3
		c14.3,0.2,20.8-3.2,22.8-7.4c1.1-2.3,1.6-5.4,1.4-9.8c-0.2-4.6-0.5-5.1-1.7-7.3c-3.3-6-13.2-8.2-24.3-8.2
		c-10.2,0-21.2,3.5-24.5,11.2c-0.7,1.6-1.2,3.5-1.4,5.3c0.1,5.3-1.2,13.3,5.4,18.4l20.5,16.4l-29.7,2.6v6.5l-6.5,4.6H684l-6.4-4.6
		v-3.6l33.4-2.8V538L688.8,520.3z"/>
	<path clip-path="url(#SVGID_2_)" fill="#C43C30" d="M454.2,552.8l-6.5-4.6v-8.3H443l-8.3,5.6v-18.9c-0.3-10.9-13.7-11.7-28.7-9.8
		l12-15.8v-3.7h-13.9V488l-15.7,4.7l6.5,4.6v3.7h12.8l-14.2,18.6c-2.2,3-4.2,6.5-4.2,11.1v17.6l-6.6,4.6H405l-6.5-4.6v-17.6
		c0-3.8,1.4-5.7,2-6.4c0.8-1,1.2-1.7,1.5-2.1c0.6-0.7,1.5-0.9,1.5-0.9c2.4-0.6,21.9-3.3,21.9,6.2v19.9c0,3.7,1.8,5.6,3.7,5.6
		c0.9,0,1.9,0,3.7-0.9c1.9-0.9,5.5-3.7,5.5-3.7v4.6H454.2z"/>
	<path clip-path="url(#SVGID_2_)" fill="#C43C30" d="M621.7,520.1c-10.4-0.2-13.6-1.9-13.6-10.1c0-8.1,9.6-9.1,14.8-9.3
		c12.6-0.3,14.9,3.8,14.8,8.1c-0.1,2.8,0,5.5-6.2,7.8C630.4,517.1,625.7,518.8,621.7,520.1 M646.9,537.4c0-10.6-7.6-12.2-14-12.9
		c0.9-0.3,3.1-1.2,3.9-1.4c8.4-3.1,10.4-6.7,10.6-12.7v-0.2h3.7v10.2h15.7l-6.5-4.7v-9.2H647c-1.4-4.7-6.1-9-19.5-9.3V488l-15.8,4.7
		l6.5,4.6c-9.5,0-19.4,4-19.9,13c-0.4,8.6,5.9,12.7,14.4,13l-9.5,3.3c-4.9,1.9-8.2,4-8.2,12.4v9.3l-6.5,4.6h22.3l-6.5-4.6v-8.4
		c0-2.7-0.5-4.7,3.7-6.1c0,0,15.2-5.4,15.9-5.6c7.4,0.5,13.7,1,13.7,9.2v10.9l-6.5,4.6h22.3l-6.5-4.6V537.4z"/>
</g>
<polygon fill-rule="evenodd" clip-rule="evenodd" fill="#231F20" points="1694.5,435.8 1695.1,435.8 1695.1,430.2 1697.5,430.2 
	1697.5,429.6 1692,429.6 1692,430.2 1694.5,430.2 "/>
<polygon fill="#231F20" points="1705.6,429.6 1702.8,435 1700,429.6 1699.1,429.6 1699.1,435.8 1699.7,435.8 1699.7,430.4 
	1699.8,430.4 1702.5,435.8 1703.1,435.8 1705.8,430.4 1705.8,430.4 1705.8,435.8 1706.5,435.8 1706.5,429.6 "/>
<g>
	<defs>
		<rect id="SVGID_3_" x="966.3" y="405.9" width="740.2" height="66.3"/>
	</defs>
	<clipPath id="SVGID_4_">
		<use xlink:href="#SVGID_3_"  overflow="visible"/>
	</clipPath>
	<path clip-path="url(#SVGID_4_)" fill-rule="evenodd" clip-rule="evenodd" fill="#D1D2D3" d="M1633,424.3c2.5-3.4,5.2-6.7,8.2-9.8
		c3-3.1,6.2-6,9.6-8.6l-3.6,14.4L1633,424.3z"/>
	<path clip-path="url(#SVGID_4_)" fill-rule="evenodd" clip-rule="evenodd" fill="#595A5C" d="M1657.8,430.5
		c-4.2-0.4-8.4-1.2-12.6-2.2c-4.2-1.1-8.3-2.4-12.2-4l14.2-4.1L1657.8,430.5z"/>
	<path clip-path="url(#SVGID_4_)" fill-rule="evenodd" clip-rule="evenodd" fill="#929497" d="M1650.8,405.9
		c1.7,3.9,3.2,7.9,4.4,12.1c1.2,4.2,2.1,8.4,2.7,12.6l-10.6-10.3L1650.8,405.9z"/>
	<path clip-path="url(#SVGID_4_)" fill-rule="evenodd" clip-rule="evenodd" fill="#929497" d="M1627.9,453.9
		c-2.5-3.4-4.8-7-6.8-10.9c-2-3.9-3.8-7.8-5.2-11.8l12.6,7.8L1627.9,453.9z"/>
	<path clip-path="url(#SVGID_4_)" fill-rule="evenodd" clip-rule="evenodd" fill="#595A5C" d="M1641.5,432.1
		c-1.7,3.9-3.7,7.7-6,11.3c-2.3,3.7-4.9,7.2-7.6,10.4l0.5-14.8L1641.5,432.1z"/>
	<path clip-path="url(#SVGID_4_)" fill-rule="evenodd" clip-rule="evenodd" fill="#D1D2D3" d="M1615.9,431.2
		c4.2-0.5,8.5-0.6,12.8-0.5c4.3,0.1,8.6,0.6,12.8,1.4l-13.1,7L1615.9,431.2z"/>
	<path clip-path="url(#SVGID_4_)" fill-rule="evenodd" clip-rule="evenodd" fill="#595A5C" d="M1654.5,467.8
		c-4,1.3-8.2,2.4-12.4,3.1c-4.3,0.8-8.6,1.2-12.8,1.3l11.3-9.5L1654.5,467.8z"/>
	<path clip-path="url(#SVGID_4_)" fill-rule="evenodd" clip-rule="evenodd" fill="#929497" d="M1638,448.1c3.1,2.8,6.1,5.9,8.9,9.2
		c2.8,3.3,5.3,6.8,7.5,10.4l-13.9-5.1L1638,448.1z"/>
	<path clip-path="url(#SVGID_4_)" fill-rule="evenodd" clip-rule="evenodd" fill="#D1D2D3" d="M1629.2,472.2c0.9-4.1,2-8.3,3.5-12.3
		c1.5-4.1,3.3-8,5.3-11.8l2.6,14.6L1629.2,472.2z"/>
	<path clip-path="url(#SVGID_4_)" fill-rule="evenodd" clip-rule="evenodd" fill="#929497" d="M1675.9,446.8c0,4.2-0.3,8.5-0.9,12.8
		c-0.6,4.3-1.5,8.5-2.7,12.6l-5.5-13.7L1675.9,446.8z"/>
	<path clip-path="url(#SVGID_4_)" fill-rule="evenodd" clip-rule="evenodd" fill="#D1D2D3" d="M1652.1,456.5c3.7-2.1,7.5-4,11.5-5.7
		c4-1.6,8.1-2.9,12.3-4l-9.1,11.7L1652.1,456.5z"/>
	<path clip-path="url(#SVGID_4_)" fill-rule="evenodd" clip-rule="evenodd" fill="#595A5C" d="M1672.3,472.2
		c-3.7-2.1-7.2-4.5-10.6-7.2c-3.4-2.7-6.6-5.6-9.6-8.6l14.7,2.1L1672.3,472.2z"/>
	<path clip-path="url(#SVGID_4_)" fill-rule="evenodd" clip-rule="evenodd" fill="#929497" d="M1662.6,420c4,1.3,8,2.9,11.9,4.8
		c3.9,1.9,7.6,4.1,11.1,6.5l-14.8,1L1662.6,420z"/>
	<path clip-path="url(#SVGID_4_)" fill-rule="evenodd" clip-rule="evenodd" fill="#D1D2D3" d="M1664.4,445.6
		c-0.9-4.1-1.5-8.4-1.8-12.7c-0.3-4.3-0.3-8.6,0-12.9l8.3,12.3L1664.4,445.6z"/>
	<path clip-path="url(#SVGID_4_)" fill-rule="evenodd" clip-rule="evenodd" fill="#595A5C" d="M1685.6,431.2
		c-3.1,2.8-6.5,5.5-10.1,7.9c-3.6,2.4-7.3,4.6-11.2,6.4l6.5-13.3L1685.6,431.2z"/>
	<polygon clip-path="url(#SVGID_4_)" fill-rule="evenodd" clip-rule="evenodd" fill="#231F20" points="1418.7,428.9 1422.7,428.9 
		1422.7,456.2 1419.9,456.2 1419.9,432.6 1419.8,432.6 1407.8,456.2 1405.2,456.2 1393.1,432.6 1393.1,432.6 1393.1,456.2 
		1390.3,456.2 1390.3,428.9 1394.4,428.9 1406.6,452.7 	"/>
	<path clip-path="url(#SVGID_4_)" fill-rule="evenodd" clip-rule="evenodd" fill="#231F20" d="M1010.8,447.3c0,2.7,0.8,4.7,2.4,6.3
		c2.1,2.1,5.8,3.2,10.5,3.2c2.6,0,11.6-0.6,11.6-8c0-6.6-6-7.2-11.3-7.7l0,0c-5.5-0.6-9.5-1.1-9.5-4.9c0-1.8,0.9-3.2,2.9-4.1
		c2-0.9,4.2-1.1,6.4-1.1c1.7,0,4.9,0.3,6.7,2.1c0.8,0.8,1.2,2.1,1.2,3.4l2.8,0c0-2-0.6-4-1.9-5.3c-2.3-2.3-6.2-2.8-9-2.8
		c-3.9,0-7.8,0.8-10.1,3.2c-1.2,1.2-1.9,2.7-1.9,4.4c0,6.4,6.5,7,11.7,7.4c2.4,0.2,4.7,0.4,6.4,1.2c1.8,0.8,2.6,2.1,2.6,4.1
		c0,1.3-0.4,2.3-1.3,3.2c-2,2-6.1,2.2-7.6,2.2c-3.7,0-6.7-0.8-8.3-2.4c-1.1-1.2-1.7-2.6-1.7-4.6H1010.8z M1039.7,429v2.7h10.5v24.6
		h2.8v-24.6h10.6V429H1039.7z M1076.9,429l-12.5,27.2h3.1c0,0,3.6-7.8,3.9-8.4h13.7c0.3,0.6,3.8,8.4,3.8,8.4h3.1l-12.5-27.2H1076.9z
		 M1078.2,432.7c0.9,1.9,5.1,11.1,5.7,12.4h-11.4C1073.1,443.8,1077.3,434.6,1078.2,432.7 M1099.9,429v27.2h2.8v-11.8h11
		c4.9,0,6,1,6.1,5.2c0.1,4.4,0.3,5.9,0.9,6.5l0.2,0.2h2.9l-0.5-0.9c-0.5-0.8-0.6-2.5-0.6-6.9c0-2.7-1.5-4.7-3.9-5.5
		c3.1-1.4,4.3-4.1,4.3-6.4c0-5-3.1-7.5-9.4-7.5H1099.9z M1113.9,431.6c4.3,0,6.4,1.6,6.4,4.8c0,3.6-2.2,5.3-6.8,5.3h-10.8v-10.1
		H1113.9z M1155.5,429l-12.5,27.2h3.1c0,0,3.5-7.8,3.8-8.4h13.7c0.3,0.6,3.9,8.4,3.9,8.4h3.1l-12.5-27.2H1155.5z M1156.8,432.7
		c0.9,1.9,5,11.1,5.7,12.4h-11.4C1151.8,443.8,1156,434.6,1156.8,432.7 M1254.7,429l-12.5,27.2h3.1c0,0,3.5-7.8,3.8-8.4h13.7
		c0.3,0.6,3.9,8.4,3.9,8.4h3.1l-12.5-27.2H1254.7z M1256,432.7c0.9,1.9,5,11.1,5.7,12.4h-11.4C1250.9,443.8,1255.1,434.6,1256,432.7
		 M1179.4,429v27.2h19.6v-2.7h-16.8V429H1179.4z M1205.1,429v27.2h19.6v-2.7H1208V429H1205.1z M1230.6,456.2h2.8V429h-2.8V456.2z
		 M1300,429v22.7c-1.8-2.1-19.7-22.7-19.7-22.7h-2.8v27.2h2.8v-22.7c1.8,2.1,19.7,22.7,19.7,22.7h2.8V429H1300z M1349.1,429v27.2h22
		v-2.7h-19.2v-10.1h18.2v-2.6h-18.2v-9.2h18.9V429H1349.1z M1311.7,442.6c0,8.6,6,14.2,14.8,14.2c8.2,0,13.1-5.5,13.8-11l0.1-0.7h-3
		l-0.1,0.5c-0.9,5.2-5.1,8.5-10.8,8.5c-8.5,0-11.8-5.9-11.8-11.5c0-6.8,4.9-11.6,11.9-11.6c5.4,0,9.2,2.6,10.3,6.8l0.1,0.5h3
		l-0.2-0.7c-1.4-5.9-6.2-9.2-13.2-9.2C1316.5,428.4,1311.7,435.8,1311.7,442.6"/>
	<path clip-path="url(#SVGID_4_)" fill-rule="evenodd" clip-rule="evenodd" fill="#231F20" d="M981.4,429h-2.6l-12.5,27.2h3.1
		c0,0,3.6-7.8,3.9-8.4H987c0.3,0.6,3.8,8.4,3.8,8.4h3.1L981.4,429z M974.4,445.2c0.6-1.4,4.8-10.6,5.7-12.4
		c0.9,1.9,5.1,11.1,5.7,12.4H974.4z"/>
	<polygon clip-path="url(#SVGID_4_)" fill-rule="evenodd" clip-rule="evenodd" fill="#231F20" points="1431.5,429 1431.5,456.3 
		1453.5,456.3 1453.5,453.6 1434.3,453.6 1434.3,443.5 1452.5,443.5 1452.5,440.9 1434.3,440.9 1434.3,431.7 1453.3,431.7 
		1453.3,429 	"/>
	<polygon clip-path="url(#SVGID_4_)" fill-rule="evenodd" clip-rule="evenodd" fill="#231F20" points="1490.6,428.9 1494.6,428.9 
		1494.6,456.2 1491.7,456.2 1491.7,432.6 1491.7,432.6 1479.6,456.2 1477,456.2 1465,432.6 1464.9,432.6 1464.9,456.2 1462.1,456.2 
		1462.1,428.9 1466.2,428.9 1478.4,452.7 	"/>
	<path clip-path="url(#SVGID_4_)" fill-rule="evenodd" clip-rule="evenodd" fill="#231F20" d="M1506.2,431.5h12.2
		c3.1,0,5.3,1.1,5.3,4.4c0,3.6-2.4,4.9-6.2,4.9h-11.2V431.5z M1503.4,456.2h15.1c4.2,0,9-2.1,9-7.8c0-3.5-2.2-6.1-5.7-6.7v-0.1
		c3.2-0.8,4.7-3.2,4.7-5.9c0-3.9-2.2-6.9-7.6-6.9h-15.5V456.2z M1506.2,443.4h12.5c3.3,0,5.7,1.1,5.7,5.1c0,3.7-2.8,5.2-6.4,5.2
		h-11.9V443.4z"/>
	<polygon clip-path="url(#SVGID_4_)" fill-rule="evenodd" clip-rule="evenodd" fill="#231F20" points="1536.4,429 1536.4,456.2 
		1558.4,456.2 1558.4,453.6 1539.3,453.6 1539.3,443.5 1557.5,443.5 1557.5,440.8 1539.3,440.8 1539.3,431.7 1558.2,431.7 
		1558.2,429 	"/>
	<path clip-path="url(#SVGID_4_)" fill-rule="evenodd" clip-rule="evenodd" fill="#231F20" d="M1590.5,455.4
		c-0.4-0.9-0.6-2.5-0.6-6.9c0-2.7-1.5-4.7-3.8-5.5c3-1.4,4.3-4.1,4.3-6.4c0-5-3.1-7.5-9.4-7.5H1567v27.2h2.8v-11.8h11
		c4.9,0,6,1,6.1,5.2c0.1,4.4,0.3,5.9,0.9,6.5l0.2,0.2h2.9L1590.5,455.4z M1580.6,441.7h-10.8v-10.1h11.2c4.3,0,6.4,1.5,6.4,4.7
		C1587.4,440,1585.2,441.7,1580.6,441.7"/>
</g>
</svg>
