<?xml version="1.0" encoding="utf-8"?>
<!-- Generator: Adobe Illustrator 19.2.1, SVG Export Plug-In . SVG Version: 6.00 Build 0)  -->
<svg version="1.1" id="Layer_1" xmlns="http://www.w3.org/2000/svg" xmlns:xlink="http://www.w3.org/1999/xlink" x="0px" y="0px"
	 viewBox="0 0 4766.9 4394.1" style="enable-background:new 0 0 4766.9 4394.1;" xml:space="preserve">
<style type="text/css">
	.st0{fill:#FFFFFF;}
	.st1{fill:url(#SVGID_1_);}
	.st2{fill:#FFCB05;}
	.st3{clip-path:url(#SVGID_3_);}
	.st4{fill:#C43C30;}
	.st5{fill:none;stroke:#000000;stroke-width:0.25;}
</style>
<path class="st0" d="M2662.8,2889.7c821.7-506.9,1409.2-955.9,1736.5-1318.6c133.1-147.5,163.2-303.2,174.6-373.5l-0.1,2776H609.2
	C938.1,3877.6,1947.9,3330.7,2662.8,2889.7z"/>
<linearGradient id="SVGID_1_" gradientUnits="userSpaceOnUse" x1="1332.3623" y1="2205.3962" x2="4572.0859" y2="2205.3962">
	<stop  offset="0" style="stop-color:#5E8C4D"/>
	<stop  offset="0.6679" style="stop-color:#6C895C"/>
	<stop  offset="1" style="stop-color:#A0B58D"/>
</linearGradient>
<path class="st1" d="M4572.1,1113.1c-0.5-10.6-1.2-16.8-1.2-16.8c0,28-30.8,155.8-253.5,363.6
	c-461.3,430.3-1642.9,1263.6-2968.3,1791.7c-32.1,12.8-14.9,31.3,25.9,36.3c29.7,10.2,87.2,19.3,147.6,26.5
	C2811.4,2720.2,3846.8,1981,4350.3,1492C4552.6,1295.6,4571.1,1151.4,4572.1,1113.1z"/>
<path class="st2" d="M4572.6,1168c-3.6,35.2-53.4,234.6-215.9,388.3c-583.3,551.5-1786.1,1397.4-3179.6,2042.5
	c-58.2-4.1-121.2-12.5-144.2-20c-41.7-4.6-61.7-26.6-27.8-39.7c1526.8-621.5,2776-1494.2,3345.2-2047
	c210.5-204.4,222-352.3,221.8-383.1C4572.1,1108.9,4574.4,1132.4,4572.6,1168z"/>
<g>
	<defs>
		<path id="SVGID_2_" d="M4572.8,1166.6c-2.5,31.3-51.5,234.1-216.1,389.7c-706,667.5-2319.6,1766.4-4080.4,2418.4h330.3
			c329.2-97.7,1340.1-643.6,2055.6-1085c821.7-506.9,1409.2-955.9,1736.4-1318.6C4588.9,1360.3,4572.8,1166.6,4572.8,1166.6z"/>
	</defs>
	<use xlink:href="#SVGID_2_"  style="overflow:visible;fill:#C43C30;"/>
	<clipPath id="SVGID_3_">
		<use xlink:href="#SVGID_2_"  style="overflow:visible;"/>
	</clipPath>
	<g class="st3">
		<polyline class="st4" points="4536.1,1166.6 3836.1,1548.5 4177.8,2174.6 4588.9,1950.3 4588.9,1166.6 4536.1,1166.6 		"/>
		<polyline class="st4" points="3836.1,1548.5 3824.1,1555.1 4165.7,2181.2 4177.8,2174.6 3836.1,1548.5 		"/>
		<polyline class="st4" points="3824.1,1555.1 3812,1561.7 4153.6,2187.8 4165.7,2181.2 3824.1,1555.1 		"/>
		<polyline class="st4" points="3812,1561.7 3799.9,1568.3 4141.5,2194.4 4153.6,2187.8 3812,1561.7 		"/>
		<polyline class="st4" points="3799.9,1568.3 3787.8,1574.9 4129.5,2201 4141.5,2194.4 3799.9,1568.3 		"/>
		<polyline class="st4" points="3787.8,1574.9 3775.8,1581.4 4117.4,2207.6 4129.5,2201 3787.8,1574.9 		"/>
		<polyline class="st4" points="3775.8,1581.4 3763.7,1588 4105.3,2214.1 4117.4,2207.6 3775.8,1581.4 		"/>
		<polyline class="st4" points="3763.7,1588 3751.6,1594.6 4093.2,2220.7 4105.3,2214.1 3763.7,1588 		"/>
		<polyline class="st4" points="3751.6,1594.6 3739.5,1601.2 4081.1,2227.3 4093.2,2220.7 3751.6,1594.6 		"/>
		<polyline class="st4" points="3739.5,1601.2 3727.5,1607.8 4069.1,2233.9 4081.1,2227.3 3739.5,1601.2 		"/>
		<polyline class="st4" points="3727.5,1607.8 3715.4,1614.4 4057,2240.5 4069.1,2233.9 3727.5,1607.8 		"/>
		<polyline class="st4" points="3715.4,1614.4 3703.3,1621 4044.9,2247.1 4057,2240.5 3715.4,1614.4 		"/>
		<polyline class="st4" points="3703.3,1621 3691.2,1627.6 4032.8,2253.7 4044.9,2247.1 3703.3,1621 		"/>
		<polyline class="st4" points="3691.2,1627.6 3679.1,1634.2 4020.8,2260.3 4032.8,2253.7 3691.2,1627.6 		"/>
		<polyline class="st4" points="3679.1,1634.2 3667.1,1640.8 4008.7,2266.9 4020.8,2260.3 3679.1,1634.2 		"/>
		<polyline class="st4" points="3667.1,1640.8 3655,1647.3 3996.6,2273.4 4008.7,2266.9 3667.1,1640.8 		"/>
		<polyline class="st4" points="3655,1647.3 3642.9,1653.9 3984.5,2280 3996.6,2273.4 3655,1647.3 		"/>
		<polyline class="st4" points="3642.9,1653.9 3630.8,1660.5 3972.5,2286.6 3984.5,2280 3642.9,1653.9 		"/>
		<polyline class="st4" points="3630.8,1660.5 3618.8,1667.1 3960.4,2293.2 3972.5,2286.6 3630.8,1660.5 		"/>
		<polyline class="st4" points="3618.8,1667.1 3606.7,1673.7 3948.3,2299.8 3960.4,2293.2 3618.8,1667.1 		"/>
		<polyline class="st4" points="3606.7,1673.7 3594.6,1680.3 3936.2,2306.4 3948.3,2299.8 3606.7,1673.7 		"/>
		<polyline class="st4" points="3594.6,1680.3 3582.5,1686.9 3924.1,2313 3936.2,2306.4 3594.6,1680.3 		"/>
		<polyline class="st4" points="3582.5,1686.9 3570.5,1693.5 3912.1,2319.6 3924.1,2313 3582.5,1686.9 		"/>
		<polyline class="st4" points="3570.5,1693.5 3558.4,1700.1 3900,2326.2 3912.1,2319.6 3570.5,1693.5 		"/>
		<polyline class="st4" points="3558.4,1700.1 3546.3,1706.6 3887.9,2332.8 3900,2326.2 3558.4,1700.1 		"/>
		<polyline class="st4" points="3546.3,1706.6 3534.2,1713.2 3875.8,2339.3 3887.9,2332.8 3546.3,1706.6 		"/>
		<polyline class="st4" points="3534.2,1713.2 3522.1,1719.8 3863.8,2345.9 3875.8,2339.3 3534.2,1713.2 		"/>
		<polyline class="st4" points="3522.1,1719.8 3510.1,1726.4 3851.7,2352.5 3863.8,2345.9 3522.1,1719.8 		"/>
		<polyline class="st4" points="3510.1,1726.4 3498,1733 3839.6,2359.1 3851.7,2352.5 3510.1,1726.4 		"/>
		<polyline class="st4" points="3498,1733 3485.9,1739.6 3827.5,2365.7 3839.6,2359.1 3498,1733 		"/>
		<polyline class="st4" points="3485.9,1739.6 3473.8,1746.2 3815.5,2372.3 3827.5,2365.7 3485.9,1739.6 		"/>
		<polyline class="st4" points="3473.8,1746.2 3461.8,1752.8 3803.4,2378.9 3815.5,2372.3 3473.8,1746.2 		"/>
		<polyline class="st4" points="3461.8,1752.8 3449.7,1759.4 3791.3,2385.5 3803.4,2378.9 3461.8,1752.8 		"/>
		<polyline class="st4" points="3449.7,1759.4 3437.6,1765.9 3779.2,2392.1 3791.3,2385.5 3449.7,1759.4 		"/>
		<polyline class="st4" points="3437.6,1765.9 3425.5,1772.5 3767.2,2398.6 3779.2,2392.1 3437.6,1765.9 		"/>
		<polyline class="st4" points="3425.5,1772.5 3413.5,1779.1 3755.1,2405.2 3767.2,2398.6 3425.5,1772.5 		"/>
		<polyline class="st4" points="3413.5,1779.1 3401.4,1785.7 3743,2411.8 3755.1,2405.2 3413.5,1779.1 		"/>
		<polyline class="st4" points="3401.4,1785.7 3389.3,1792.3 3730.9,2418.4 3743,2411.8 3401.4,1785.7 		"/>
		<polyline class="st4" points="3389.3,1792.3 3377.2,1798.9 3718.8,2425 3730.9,2418.4 3389.3,1792.3 		"/>
		<polyline class="st4" points="3377.2,1798.9 3365.2,1805.5 3706.8,2431.6 3718.8,2425 3377.2,1798.9 		"/>
		<polyline class="st4" points="3365.2,1805.5 3353.1,1812.1 3694.7,2438.2 3706.8,2431.6 3365.2,1805.5 		"/>
		<polyline class="st4" points="3353.1,1812.1 3341,1818.7 3682.6,2444.8 3694.7,2438.2 3353.1,1812.1 		"/>
		<polyline class="st4" points="3341,1818.7 3328.9,1825.3 3670.5,2451.4 3682.6,2444.8 3341,1818.7 		"/>
		<polyline class="st4" points="3328.9,1825.3 3316.9,1831.8 3658.5,2457.9 3670.5,2451.4 3328.9,1825.3 		"/>
		<polyline class="st4" points="3316.9,1831.8 3304.8,1838.4 3646.4,2464.5 3658.5,2457.9 3316.9,1831.8 		"/>
		<polyline class="st4" points="3304.8,1838.4 3292.7,1845 3634.3,2471.1 3646.4,2464.5 3304.8,1838.4 		"/>
		<polyline class="st4" points="3292.7,1845 3280.6,1851.6 3622.2,2477.7 3634.3,2471.1 3292.7,1845 		"/>
		<polyline class="st4" points="3280.6,1851.6 3268.6,1858.2 3610.2,2484.3 3622.2,2477.7 3280.6,1851.6 		"/>
		<polyline class="st4" points="3268.6,1858.2 3256.5,1864.8 3598.1,2490.9 3610.2,2484.3 3268.6,1858.2 		"/>
		<polyline class="st4" points="3256.5,1864.8 3244.4,1871.4 3586,2497.5 3598.1,2490.9 3256.5,1864.8 		"/>
		<polyline class="st4" points="3244.4,1871.4 3232.3,1878 3573.9,2504.1 3586,2497.5 3244.4,1871.4 		"/>
		<polyline class="st4" points="3232.3,1878 3220.2,1884.6 3561.9,2510.7 3573.9,2504.1 3232.3,1878 		"/>
		<polyline class="st4" points="3220.2,1884.6 3208.2,1891.1 3549.8,2517.3 3561.9,2510.7 3220.2,1884.6 		"/>
		<polyline class="st4" points="3208.2,1891.1 3196.1,1897.7 3537.7,2523.8 3549.8,2517.3 3208.2,1891.1 		"/>
		<polyline class="st4" points="3196.1,1897.7 3184,1904.3 3525.6,2530.4 3537.7,2523.8 3196.1,1897.7 		"/>
		<polyline class="st4" points="3184,1904.3 3171.9,1910.9 3513.6,2537 3525.6,2530.4 3184,1904.3 		"/>
		<polyline class="st4" points="3171.9,1910.9 3159.9,1917.5 3501.5,2543.6 3513.6,2537 3171.9,1910.9 		"/>
		<polyline class="st4" points="3159.9,1917.5 3147.8,1924.1 3489.4,2550.2 3501.5,2543.6 3159.9,1917.5 		"/>
		<polyline class="st4" points="3147.8,1924.1 3135.7,1930.7 3477.3,2556.8 3489.4,2550.2 3147.8,1924.1 		"/>
		<polyline class="st4" points="3135.7,1930.7 3123.6,1937.3 3465.2,2563.4 3477.3,2556.8 3135.7,1930.7 		"/>
		<polyline class="st4" points="3123.6,1937.3 3111.6,1943.9 3453.2,2570 3465.2,2563.4 3123.6,1937.3 		"/>
		<polyline class="st4" points="3111.6,1943.9 3099.5,1950.4 3441.1,2576.6 3453.2,2570 3111.6,1943.9 		"/>
		<polyline class="st4" points="3099.5,1950.4 3087.4,1957 3429,2583.1 3441.1,2576.6 3099.5,1950.4 		"/>
		<polyline class="st4" points="3087.4,1957 3075.3,1963.6 3416.9,2589.7 3429,2583.1 3087.4,1957 		"/>
		<polyline class="st4" points="3075.3,1963.6 3063.3,1970.2 3404.9,2596.3 3416.9,2589.7 3075.3,1963.6 		"/>
		<polyline class="st4" points="3063.3,1970.2 3051.2,1976.8 3392.8,2602.9 3404.9,2596.3 3063.3,1970.2 		"/>
		<polyline class="st4" points="3051.2,1976.8 3039.1,1983.4 3380.7,2609.5 3392.8,2602.9 3051.2,1976.8 		"/>
		<polyline class="st4" points="3039.1,1983.4 3027,1990 3368.6,2616.1 3380.7,2609.5 3039.1,1983.4 		"/>
		<polyline class="st4" points="3027,1990 3014.9,1996.6 3356.6,2622.7 3368.6,2616.1 3027,1990 		"/>
		<polyline class="st4" points="3014.9,1996.6 3002.9,2003.2 3344.5,2629.3 3356.6,2622.7 3014.9,1996.6 		"/>
		<polyline class="st4" points="3002.9,2003.2 2990.8,2009.8 3332.4,2635.9 3344.5,2629.3 3002.9,2003.2 		"/>
		<polyline class="st4" points="2990.8,2009.8 2978.7,2016.3 3320.3,2642.4 3332.4,2635.9 2990.8,2009.8 		"/>
		<polyline class="st4" points="2978.7,2016.3 2966.6,2022.9 3308.3,2649 3320.3,2642.4 2978.7,2016.3 		"/>
		<polyline class="st4" points="2966.6,2022.9 2954.5,2029.5 3296.2,2655.6 3308.3,2649 2966.6,2022.9 		"/>
		<polyline class="st4" points="2954.5,2029.5 2942.5,2036.1 3284.1,2662.2 3296.2,2655.6 2954.5,2029.5 		"/>
		<polyline class="st4" points="2942.5,2036.1 2930.4,2042.7 3272,2668.8 3284.1,2662.2 2942.5,2036.1 		"/>
		<polyline class="st4" points="2930.4,2042.7 2918.3,2049.3 3259.9,2675.4 3272,2668.8 2930.4,2042.7 		"/>
		<polyline class="st4" points="2918.3,2049.3 2906.3,2055.9 3247.9,2682 3259.9,2675.4 2918.3,2049.3 		"/>
		<polyline class="st4" points="2906.3,2055.9 2894.2,2062.5 3235.8,2688.6 3247.9,2682 2906.3,2055.9 		"/>
		<polyline class="st4" points="2894.2,2062.5 2882.1,2069.1 3223.7,2695.2 3235.8,2688.6 2894.2,2062.5 		"/>
		<polyline class="st4" points="2882.1,2069.1 2870,2075.6 3211.6,2701.8 3223.7,2695.2 2882.1,2069.1 		"/>
		<polyline class="st4" points="2870,2075.6 2857.9,2082.2 3199.6,2708.3 3211.6,2701.8 2870,2075.6 		"/>
		<polyline class="st4" points="2857.9,2082.2 2845.9,2088.8 3187.5,2714.9 3199.6,2708.3 2857.9,2082.2 		"/>
		<polyline class="st4" points="2845.9,2088.8 2833.8,2095.4 3175.4,2721.5 3187.5,2714.9 2845.9,2088.8 		"/>
		<polyline class="st4" points="2833.8,2095.4 2821.7,2102 3163.3,2728.1 3175.4,2721.5 2833.8,2095.4 		"/>
		<polyline class="st4" points="2821.7,2102 2809.6,2108.6 3151.3,2734.7 3163.3,2728.1 2821.7,2102 		"/>
		<polyline class="st4" points="2809.6,2108.6 2797.6,2115.2 3139.2,2741.3 3151.3,2734.7 2809.6,2108.6 		"/>
		<polyline class="st4" points="2797.6,2115.2 2785.5,2121.8 3127.1,2747.9 3139.2,2741.3 2797.6,2115.2 		"/>
		<polyline class="st4" points="2785.5,2121.8 2773.4,2128.4 3115,2754.5 3127.1,2747.9 2785.5,2121.8 		"/>
		<polyline class="st4" points="2773.4,2128.4 2761.3,2134.9 3103,2761.1 3115,2754.5 2773.4,2128.4 		"/>
		<polyline class="st4" points="2761.3,2134.9 2749.3,2141.5 3090.9,2767.6 3103,2761.1 2761.3,2134.9 		"/>
		<polyline class="st4" points="2749.3,2141.5 2737.2,2148.1 3078.8,2774.2 3090.9,2767.6 2749.3,2141.5 		"/>
		<polyline class="st4" points="2737.2,2148.1 2725.1,2154.7 3066.7,2780.8 3078.8,2774.2 2737.2,2148.1 		"/>
		<polyline class="st4" points="2725.1,2154.7 2713,2161.3 3054.6,2787.4 3066.7,2780.8 2725.1,2154.7 		"/>
		<polyline class="st4" points="2713,2161.3 2700.9,2167.9 3042.6,2794 3054.6,2787.4 2713,2161.3 		"/>
		<polyline class="st4" points="2700.9,2167.9 2688.9,2174.5 3030.5,2800.6 3042.6,2794 2700.9,2167.9 		"/>
		<polyline class="st4" points="2688.9,2174.5 2676.8,2181.1 3018.4,2807.2 3030.5,2800.6 2688.9,2174.5 		"/>
		<polyline class="st4" points="2676.8,2181.1 2664.7,2187.7 3006.3,2813.8 3018.4,2807.2 2676.8,2181.1 		"/>
		<polyline class="st4" points="2664.7,2187.7 2633.9,2204.5 2975.5,2830.6 3006.3,2813.8 2664.7,2187.7 		"/>
		<polyline class="st4" points="2633.9,2204.5 2603.1,2221.3 2944.8,2847.4 2975.5,2830.6 2633.9,2204.5 		"/>
		<polyline class="st4" points="2603.1,2221.3 2572.3,2238.1 2914,2864.2 2944.8,2847.4 2603.1,2221.3 		"/>
		<polyline class="st4" points="2572.3,2238.1 2541.6,2254.9 2883.2,2881 2914,2864.2 2572.3,2238.1 		"/>
		<polyline class="st4" points="2541.6,2254.9 2510.8,2271.7 2852.4,2897.8 2883.2,2881 2541.6,2254.9 		"/>
		<polyline class="st4" points="2510.8,2271.7 2480,2288.5 2821.6,2914.6 2852.4,2897.8 2510.8,2271.7 		"/>
		<polyline class="st4" points="2480,2288.5 2449.2,2305.3 2790.8,2931.4 2821.6,2914.6 2480,2288.5 		"/>
		<polyline class="st4" points="2449.2,2305.3 2418.4,2322.1 2760,2948.2 2790.8,2931.4 2449.2,2305.3 		"/>
		<polyline class="st4" points="2418.4,2322.1 2387.6,2338.9 2729.2,2965 2760,2948.2 2418.4,2322.1 		"/>
		<polyline class="st4" points="2387.6,2338.9 2356.8,2355.7 2698.4,2981.8 2729.2,2965 2387.6,2338.9 		"/>
		<polyline class="st4" points="2356.8,2355.7 2326,2372.5 2667.6,2998.6 2698.4,2981.8 2356.8,2355.7 		"/>
		<polyline class="st4" points="2326,2372.5 2295.2,2389.3 2636.8,3015.4 2667.6,2998.6 2326,2372.5 		"/>
		<polyline class="st4" points="2295.2,2389.3 2264.4,2406.1 2606.1,3032.2 2636.8,3015.4 2295.2,2389.3 		"/>
		<polyline class="st4" points="2264.4,2406.1 2233.6,2422.9 2575.3,3049 2606.1,3032.2 2264.4,2406.1 		"/>
		<polyline class="st4" points="2233.6,2422.9 2202.8,2439.7 2544.5,3065.8 2575.3,3049 2233.6,2422.9 		"/>
		<polyline class="st4" points="2202.8,2439.7 2172.1,2456.5 2513.7,3082.6 2544.5,3065.8 2202.8,2439.7 		"/>
		<polyline class="st4" points="2172.1,2456.5 2141.3,2473.3 2482.9,3099.4 2513.7,3082.6 2172.1,2456.5 		"/>
		<polyline class="st4" points="2141.3,2473.3 2110.5,2490.1 2452.1,3116.2 2482.9,3099.4 2141.3,2473.3 		"/>
		<polyline class="st4" points="2110.5,2490.1 2079.7,2506.9 2421.3,3133 2452.1,3116.2 2110.5,2490.1 		"/>
		<polyline class="st4" points="2079.7,2506.9 2048.9,2523.7 2390.5,3149.8 2421.3,3133 2079.7,2506.9 		"/>
		<polyline class="st4" points="2048.9,2523.7 2018.1,2540.5 2359.7,3166.6 2390.5,3149.8 2048.9,2523.7 		"/>
		<polyline class="st4" points="2018.1,2540.5 1987.3,2557.3 2328.9,3183.4 2359.7,3166.6 2018.1,2540.5 		"/>
		<polyline class="st4" points="1987.3,2557.3 1956.5,2574.1 2298.2,3200.2 2328.9,3183.4 1987.3,2557.3 		"/>
		<polyline class="st4" points="1956.5,2574.1 1925.7,2590.9 2267.4,3217 2298.2,3200.2 1956.5,2574.1 		"/>
		<polyline class="st4" points="1925.7,2590.9 1894.9,2607.7 2236.6,3233.8 2267.4,3217 1925.7,2590.9 		"/>
		<polyline class="st4" points="1894.9,2607.7 1864.2,2624.5 2205.8,3250.6 2236.6,3233.8 1894.9,2607.7 		"/>
		<polyline class="st4" points="1864.2,2624.5 1833.4,2641.3 2175,3267.4 2205.8,3250.6 1864.2,2624.5 		"/>
		<polyline class="st4" points="1833.4,2641.3 1802.6,2658.1 2144.2,3284.2 2175,3267.4 1833.4,2641.3 		"/>
		<polyline class="st4" points="1802.6,2658.1 1771.8,2674.9 2113.4,3301 2144.2,3284.2 1802.6,2658.1 		"/>
		<polyline class="st4" points="1771.8,2674.9 1741,2691.7 2082.6,3317.8 2113.4,3301 1771.8,2674.9 		"/>
		<polyline class="st4" points="1741,2691.7 1710.2,2708.5 2051.8,3334.6 2082.6,3317.8 1741,2691.7 		"/>
		<polyline class="st4" points="1710.2,2708.5 1679.4,2725.3 2021,3351.4 2051.8,3334.6 1710.2,2708.5 		"/>
		<polyline class="st4" points="1679.4,2725.3 1648.6,2742.1 1990.2,3368.2 2021,3351.4 1679.4,2725.3 		"/>
		<polyline class="st4" points="1648.6,2742.1 1617.8,2758.9 1959.4,3385 1990.2,3368.2 1648.6,2742.1 		"/>
		<polyline class="st4" points="1617.8,2758.9 1587,2775.7 1928.7,3401.8 1959.4,3385 1617.8,2758.9 		"/>
		<polyline class="st4" points="1587,2775.7 1556.2,2792.5 1897.9,3418.6 1928.7,3401.8 1587,2775.7 		"/>
		<polyline class="st4" points="1556.2,2792.5 1525.5,2809.3 1867.1,3435.4 1897.9,3418.6 1556.2,2792.5 		"/>
		<polyline class="st4" points="1525.5,2809.3 1494.7,2826.1 1836.3,3452.2 1867.1,3435.4 1525.5,2809.3 		"/>
		<polyline class="st4" points="1494.7,2826.1 1463.9,2842.9 1805.5,3469 1836.3,3452.2 1494.7,2826.1 		"/>
		<polyline class="st4" points="1463.9,2842.9 1433.1,2859.7 1774.7,3485.8 1805.5,3469 1463.9,2842.9 		"/>
		<polyline class="st4" points="1433.1,2859.7 1402.3,2876.5 1743.9,3502.6 1774.7,3485.8 1433.1,2859.7 		"/>
		<polyline class="st4" points="1402.3,2876.5 1371.5,2893.3 1713.1,3519.4 1743.9,3502.6 1402.3,2876.5 		"/>
		<polyline class="st4" points="1371.5,2893.3 1340.7,2910.1 1682.3,3536.2 1713.1,3519.4 1371.5,2893.3 		"/>
		<polyline class="st4" points="1340.7,2910.1 1309.9,2926.9 1651.5,3553 1682.3,3536.2 1340.7,2910.1 		"/>
		<polyline class="st4" points="1309.9,2926.9 1279.1,2943.7 1620.8,3569.8 1651.5,3553 1309.9,2926.9 		"/>
		<polyline class="st4" points="1279.1,2943.7 1248.3,2960.5 1590,3586.6 1620.8,3569.8 1279.1,2943.7 		"/>
		<polyline class="st4" points="1248.3,2960.5 1217.5,2977.3 1559.2,3603.4 1590,3586.6 1248.3,2960.5 		"/>
		<polyline class="st4" points="1217.5,2977.3 1186.8,2994.1 1528.4,3620.2 1559.2,3603.4 1217.5,2977.3 		"/>
		<polyline class="st4" points="1186.8,2994.1 1156,3010.9 1497.6,3637 1528.4,3620.2 1186.8,2994.1 		"/>
		<polyline class="st4" points="1156,3010.9 1125.2,3027.7 1466.8,3653.8 1497.6,3637 1156,3010.9 		"/>
		<polyline class="st4" points="1125.2,3027.7 1094.4,3044.5 1436,3670.6 1466.8,3653.8 1125.2,3027.7 		"/>
		<polyline class="st4" points="1094.4,3044.5 1063.6,3061.3 1405.2,3687.4 1436,3670.6 1094.4,3044.5 		"/>
		<polyline class="st4" points="1063.6,3061.3 1032.8,3078.1 1374.4,3704.2 1405.2,3687.4 1063.6,3061.3 		"/>
		<polyline class="st4" points="1032.8,3078.1 1002,3094.9 1343.6,3721 1374.4,3704.2 1032.8,3078.1 		"/>
		<polyline class="st4" points="1002,3094.9 971.2,3111.7 1312.8,3737.8 1343.6,3721 1002,3094.9 		"/>
		<polyline class="st4" points="971.2,3111.7 940.4,3128.5 1282.1,3754.6 1312.8,3737.8 971.2,3111.7 		"/>
		<polyline class="st4" points="940.4,3128.5 909.6,3145.3 1251.3,3771.4 1282.1,3754.6 940.4,3128.5 		"/>
		<polyline class="st4" points="909.6,3145.3 878.9,3162.1 1220.5,3788.2 1251.3,3771.4 909.6,3145.3 		"/>
		<polyline class="st4" points="878.9,3162.1 848.1,3178.9 1189.7,3805 1220.5,3788.2 878.9,3162.1 		"/>
		<polyline class="st4" points="848.1,3178.9 817.3,3195.7 1158.9,3821.8 1189.7,3805 848.1,3178.9 		"/>
		<polyline class="st4" points="817.3,3195.7 786.5,3212.5 1128.1,3838.6 1158.9,3821.8 817.3,3195.7 		"/>
		<polyline class="st4" points="786.5,3212.5 755.7,3229.3 1097.3,3855.4 1128.1,3838.6 786.5,3212.5 		"/>
		<polyline class="st4" points="755.7,3229.3 724.9,3246.1 1066.5,3872.2 1097.3,3855.4 755.7,3229.3 		"/>
		<polyline class="st4" points="724.9,3246.1 694.1,3262.9 1035.7,3889 1066.5,3872.2 724.9,3246.1 		"/>
		<polyline class="st4" points="694.1,3262.9 663.3,3279.7 1004.9,3905.8 1035.7,3889 694.1,3262.9 		"/>
		<polyline class="st4" points="663.3,3279.7 632.5,3296.5 974.2,3922.6 1004.9,3905.8 663.3,3279.7 		"/>
		<polyline class="st4" points="632.5,3296.5 601.7,3313.3 943.4,3939.4 974.2,3922.6 632.5,3296.5 		"/>
		<polyline class="st4" points="601.7,3313.3 570.9,3330.1 912.6,3956.2 943.4,3939.4 601.7,3313.3 		"/>
		<polyline class="st4" points="570.9,3330.1 540.2,3346.9 881.8,3973 912.6,3956.2 570.9,3330.1 		"/>
		<polyline class="st4" points="540.2,3346.9 509.4,3363.7 842.7,3974.7 878.7,3974.7 881.8,3973 540.2,3346.9 		"/>
		<polyline class="st4" points="509.4,3363.7 478.6,3380.5 802.8,3974.7 842.7,3974.7 509.4,3363.7 		"/>
		<polyline class="st4" points="478.6,3380.5 447.8,3397.3 762.8,3974.7 802.8,3974.7 478.6,3380.5 		"/>
		<polyline class="st4" points="447.8,3397.3 417,3414.1 722.9,3974.7 762.8,3974.7 447.8,3397.3 		"/>
		<polyline class="st4" points="417,3414.1 386.2,3430.9 682.9,3974.7 722.9,3974.7 417,3414.1 		"/>
		<polyline class="st4" points="386.2,3430.9 355.4,3447.7 643,3974.7 682.9,3974.7 386.2,3430.9 		"/>
		<polyline class="st4" points="355.4,3447.7 324.6,3464.5 603,3974.7 643,3974.7 355.4,3447.7 		"/>
		<polyline class="st4" points="324.6,3464.5 293.8,3481.3 563,3974.7 603,3974.7 324.6,3464.5 		"/>
		<polyline class="st4" points="293.8,3481.3 276.3,3490.9 276.3,3522.3 523.1,3974.7 563,3974.7 293.8,3481.3 		"/>
		<polyline class="st4" points="276.3,3595.6 483.1,3974.7 523.1,3974.7 276.3,3522.3 276.3,3595.6 		"/>
		<polyline class="st4" points="276.3,3668.8 443.2,3974.7 483.1,3974.7 276.3,3595.6 276.3,3668.8 		"/>
		<polyline class="st4" points="276.3,3742 403.2,3974.7 443.2,3974.7 276.3,3668.8 276.3,3742 		"/>
		<polyline class="st4" points="276.3,3815.3 363.3,3974.7 403.2,3974.7 276.3,3742 276.3,3815.3 		"/>
		<polyline class="st4" points="276.3,3888.5 323.3,3974.7 363.3,3974.7 276.3,3815.3 276.3,3888.5 		"/>
		<polyline class="st4" points="276.3,3961.7 283.3,3974.7 323.3,3974.7 276.3,3888.5 276.3,3961.7 		"/>
		<polyline class="st4" points="283.3,3974.7 276.3,3961.7 276.3,3974.7 283.3,3974.7 		"/>
	</g>
</g>
<polyline class="st5" points="4573.2,1197.6 4573.1,3973.6 608.6,3973.6 "/>
</svg>
