<?xml version="1.0" encoding="utf-8"?>
<!-- Generator: Adobe Illustrator 18.1.0, SVG Export Plug-In . SVG Version: 6.00 Build 0)  -->
<!DOCTYPE svg PUBLIC "-//W3C//DTD SVG 1.1//EN" "http://www.w3.org/Graphics/SVG/1.1/DTD/svg11.dtd">
<svg version="1.1" id="Ebene_1" xmlns="http://www.w3.org/2000/svg" xmlns:xlink="http://www.w3.org/1999/xlink" x="0px" y="0px"
	 width="24px" height="24px" viewBox="-285 408.9 24 24" enable-background="new -285 408.9 24 24" xml:space="preserve">
<g>
	<path fill="#003D4E" d="M-268.4,421.2l-9.1-1.6c-0.8-1.5-2.3-4-2.5-4.4c-0.3-0.6-0.8-0.8-0.8-0.8l-1.4-0.3l0.2,4.7l-2.5-0.4
		l-0.1,0.6l7,4.2l1.8,0.3c-0.3,0.2-0.5,0.3-0.5,0.6c-0.1,0.8,1.3,1.7,3.2,2c0.3,0.1,0.6,0.1,0.8,0.1c0.1,0.3,0.4,0.5,0.7,0.5
		c0.4,0,0.8-0.3,0.8-0.8c0-0.1,0-0.1,0-0.2c0.1-0.2,0.2-0.4,0.2-0.6l0,0l0,0l0.1-0.6l1.8,0.3l0.7-3.4L-268.4,421.2z"/>
	<path fill="#003D4E" d="M-266.5,421.5h-0.3l-0.7,3.4l1.9,0.3c1.9,0.3,4.1-0.1,4.2-0.6C-261.3,423.9-264.1,422-266.5,421.5z"/>
	<circle fill="#003D4E" cx="-265.6" cy="426.8" r="0.8"/>
</g>
</svg>
