<?xml version="1.0" encoding="utf-8"?>
<!-- Generator: Adobe Illustrator 18.1.0, SVG Export Plug-In . SVG Version: 6.00 Build 0)  -->
<svg version="1.1" id="Layer_1" xmlns="http://www.w3.org/2000/svg" xmlns:xlink="http://www.w3.org/1999/xlink" x="0px" y="0px"
	 viewBox="0 0 500 100" enable-background="new 0 0 500 100" xml:space="preserve">
<g>
	<g>
		<path fill="#C43E30" d="M155.3,50.6c9.4,0.9,12.9,1,17.3,0.9c4.1-0.1,7.2,0.4,10.7-3.2c3.7-3.8,3.2-5.8,1-5.1
			c-3.3,1-15.2,5-29.2,7C154.4,50.2,154.5,50.6,155.3,50.6"/>
		<path fill="#F9CC31" d="M152.1,49.6c9.6-2.5,33.7-15.4,37.2-17.7c1.8-1.1,3.7-0.4,0.6,4.6c-2.1,3.1-3.6,4.9-9.2,6.6
			c-3.9,1.5-18.3,5.7-28.4,6.9C151.6,50.1,151.3,49.8,152.1,49.6"/>
		<path fill="#5E8C4D" d="M153.1,48.9c8.4-2.9,26.6-12.6,32.9-16.4c4.5-2.7,7.9-4.7,9.3-8.2c2.9-7.8,0.7-11-2.1-8.5
			c-3.5,3.4-20,20.7-41.2,32.9C151.7,48.9,151.6,49.3,153.1,48.9"/>
		<polygon fill="#C43E30" points="22.1,67.2 24.2,65.8 24.2,47.8 22.1,46.3 38.2,46.3 38.2,49.9 35.5,47.8 27.2,47.8 27.2,55.3 
			33.1,55.3 35.5,53.5 35.5,58.6 33.1,56.8 27.2,56.8 27.2,65.8 35.8,65.8 38.8,63.3 38.8,67.2 		"/>
		<path fill="#C43E30" d="M49,65.2l0.9,0.6c-0.4,0.8-2,1.9-3.9,1.9c-2.1,0-3.5-1.4-3.5-3.1V53.5h-3l6-4.2v3h4.5v1.2h-4.5v12.6
			c0,0,0.3,0.4,1.1,0.4C48.2,66.4,48.8,65.4,49,65.2"/>
		<path fill="#C43E30" d="M50.8,67.2l2.1-1.5V48.7l-2.1-1.5l5.1-1.5v9.6l1.7-1.4c2.2-1.6,4.2-1.9,5.5-1.9c3.3,0,4.5,1.6,4.5,3.6
			v10.2l2.1,1.5h-5.1V55.6c0-0.7-0.6-1.8-2.4-1.8c-1.1,0-2.7,0.3-4.3,1.6l-1.9,1.4v9l2.1,1.5L50.8,67.2L50.8,67.2z"/>
		<path fill="#C43E30" d="M92.1,59.8c0-3.1-1.4-6.6-5.4-6.6c-3.9,0-5.4,3.5-5.4,6.6c0,3.1,1.4,6.6,5.4,6.6
			C90.7,66.3,92.1,62.9,92.1,59.8 M86.7,52c5.4,0,9,3.7,9,7.8c0,4-3.6,7.8-9,7.8c-5.3,0-9-3.8-9-7.8C77.7,55.7,81.4,52,86.7,52"/>
		<path fill="#C43E30" d="M101.4,55.9v7.8c1,1.6,2.8,2.4,4.8,2.4c3.8,0,4.8-3.5,4.8-6.3c0-2.8-1-6.3-4.8-6.3
			C104.1,53.5,102.3,54.2,101.4,55.9 M96.3,73.2l2.1-1.5V55.3l-2.1-1.5l5.1-1.5v1.8c1.4-1.8,4.2-2.1,6-2.1c4.4,0,7.2,3.9,7.2,7.8
			c0,3.6-2.8,7.8-7.2,7.8c-1.8,0-4.4-0.4-6-2.1v6.3l1.8,1.5H96.3z"/>
		<path fill="#C43E30" d="M126.8,63.3c0,1.9,1.2,2.4,2.1,2.4c0.4,0,1.3-0.4,1.8-0.6l4.2-1.8v-3.9h-3.3
			C128.7,59.5,126.8,61,126.8,63.3 M125.6,56.5v-3.3c1.4-0.8,4.1-1.2,6-1.2c4.1,0,6.3,1.3,6.3,3.6v10.2l2.1,1.5h-5.1v-2.4l-5.7,2.4
			c-0.5,0.2-1.3,0.3-1.8,0.3c-2.1,0-3.9-1.5-3.9-3.9c0-2.9,3.3-5.4,7.2-5.4h4.2v-2.7c0-1.4-1.4-2.4-3.3-2.4c-1,0-1.8,0.2-2.5,0.7
			L125.6,56.5z"/>
		<path fill="#C43E30" d="M152.6,52c4.2,0,5.1,2.2,5.1,3.6v10.2l2.1,1.5h-5.1V55.6c0-0.7-0.6-1.8-3-1.8c-1,0-2.6,0-4.5,1.5l-1.8,1.5
			v9l2.1,1.5h-7.2l2.1-1.5V55.3l-2.1-1.5l5.1-1.5v3l1.5-1.3C149.3,52.1,151.5,52,152.6,52"/>
		<polygon fill="#C43E30" points="70.2,67.2 72.4,65.8 72.4,55.3 70.2,53.8 75.3,52.3 75.3,65.8 77.4,67.2 		"/>
		<path fill="#C43E30" d="M72,49.3c0-0.7,0.8-1.2,1.6-1.2c0.9,0,1.6,0.5,1.6,1.2c0,0.7-0.7,1.2-1.6,1.2C72.8,50.5,72,49.9,72,49.3"
			/>
		<polygon fill="#C43E30" points="115.4,67.2 117.5,65.8 117.5,55.3 115.4,53.8 120.5,52.3 120.5,65.8 122.6,67.2 		"/>
		<path fill="#C43E30" d="M117.2,49.3c0-0.7,0.7-1.2,1.6-1.2s1.6,0.5,1.6,1.2c0,0.7-0.7,1.2-1.6,1.2C118,50.5,117.2,49.9,117.2,49.3
			"/>
		<path fill="#C43E30" d="M86.7,83.5l1.6,1.2c0.2,0.2,0.5,0.4,0.5,0.8V87l-1.2,0.9h4.2L90.6,87v-1.4c0-0.7-0.1-1.2-0.8-1.7l-1.8-1.4
			c-0.6-0.5-0.6-0.5-1-0.8c0,0,1.4,0.1,2.1,0.1c2.7,0,3.9-0.6,4.3-1.4c0.2-0.4,0.3-1,0.3-1.9c0-0.9-0.1-1-0.3-1.4
			c-0.6-1.1-2.5-1.6-4.6-1.6c-1.9,0-4,0.6-4.7,2.1c-0.1,0.3-0.2,0.7-0.2,1c0,1-0.2,2.5,1,3.5L86.7,83.5z M85.8,78.5
			c0-1.5,1.2-2.3,3-2.3c1.7,0,3.1,0.4,3,2.1V79c0,0.9-0.4,1.7-1.7,1.9c-1.8,0.1-2.3,0.2-3.7,0c-0.7-0.1-0.6-1.4-0.6-1.8L85.8,78.5
			L85.8,78.5z"/>
		<path fill="#C43E30" d="M112.8,81.7V87l-1.2,0.9h4.2l-1.2-0.9v-5.3h3.2v1.9h3l-1.2-0.9V81h-4.9v-2.8c0-0.7-0.4-0.9-0.9-0.9h-0.9
			v-1.8l-3,0.9l1.2,0.9V78h1.8v3h-4.9v1.8l-1.2,0.9h3v-1.9L112.8,81.7L112.8,81.7z"/>
		<path fill="#C43E30" d="M129.3,79c0,0.9-0.4,1.7-1.7,1.9c-1.8,0.1-2.3,0.2-3.7,0c-0.7-0.1-0.6-1.4-0.6-1.8v-0.6
			c0-1.5,1.2-2.3,3-2.3c1.7,0,3.1,0.4,3,2.1V79z M134.9,81.7l-1.2-0.9V79h-2.5c0-0.2,0-0.4,0-0.6c0-0.9-0.1-1-0.3-1.4
			c-0.6-1.1-2.5-1.6-4.6-1.6c-1.9,0-4,0.7-4.7,2.1c-0.1,0.3-0.2,0.7-0.3,1c0,1-0.2,2.5,1,3.5l1.8,1.4l1.6,1.2
			c0.2,0.2,0.5,0.4,0.5,0.8V87l-1.2,0.9h4.2L128,87v-1.4c0-0.7-0.1-1.2-0.8-1.7l-1.8-1.4c-0.6-0.5-0.6-0.5-1-0.8
			c0,0,1.4,0.1,2.1,0.1c2.7,0,4-0.6,4.3-1.4c0.1-0.2,0.2-0.4,0.2-0.6h0.8v1.9H134.9z"/>
		<path fill="#C43E30" d="M151.8,78.5c0-1.5,1.2-2.2,3-2.3c1.7,0,3.1,0.4,3,2.1V79c0,0.9-0.4,1.7-1.7,1.9c-1.8,0.1-2.3,0.2-3.7,0
			c-0.7-0.1-0.6-1.4-0.6-1.8V78.5z M153.1,81.6c0,0,1.4,0.1,2.1,0.1c2.7,0,4-0.6,4.3-1.4c0.2-0.4,0.3-1,0.3-1.9c0-0.9-0.1-1-0.3-1.4
			c-0.6-1.1-2.5-1.6-4.6-1.6c-1.9,0-4,0.7-4.7,2.1c-0.1,0.3-0.2,0.7-0.3,1c0,1-0.2,2.5,1,3.5l3.9,3.1l-5.6,0.5V87l-1.2,0.9h4.2
			l-1.2-0.9v-0.7l6.3-0.5V85L153.1,81.6z"/>
		<path fill="#C43E30" d="M108.4,87.8l-1.2-0.9v-1.6h-0.9l-1.6,1.1v-3.6c0-2.1-2.6-2.2-5.5-1.9l2.3-3v-0.7h-2.6v-1.8l-3,0.9l1.2,0.9
			V78h2.4l-2.7,3.5c-0.4,0.6-0.8,1.2-0.8,2.1v3.3l-1.3,0.9h4.3l-1.2-0.9v-3.3c0-0.7,0.3-1.1,0.4-1.2c0.2-0.2,0.2-0.3,0.3-0.4
			c0.1-0.1,0.3-0.2,0.3-0.2c0.5-0.1,4.2-0.6,4.2,1.2v3.8c0,0.7,0.4,1.1,0.7,1.1c0.2,0,0.4,0,0.7-0.2c0.4-0.2,1-0.7,1-0.7v0.9
			C105.4,87.8,108.4,87.8,108.4,87.8z"/>
		<path fill="#C43E30" d="M140.3,81.6c-2,0-2.6-0.4-2.6-1.9c0-1.5,1.8-1.7,2.8-1.8c2.4,0,2.8,0.7,2.8,1.5c0,0.5,0,1-1.2,1.5
			C141.9,81,141.1,81.4,140.3,81.6 M145.1,84.9c0-2-1.4-2.3-2.7-2.5c0.2-0.1,0.6-0.2,0.7-0.3c1.6-0.6,2-1.3,2-2.4v0h0.7v1.9h3
			l-1.2-0.9V79h-2.6c-0.3-0.9-1.2-1.7-3.7-1.8v-1.8l-3,0.9l1.2,0.9c-1.8,0-3.7,0.8-3.8,2.5c-0.1,1.6,1.1,2.4,2.7,2.5l-1.8,0.6
			c-0.9,0.4-1.6,0.8-1.6,2.4v1.8l-1.2,0.9h4.2l-1.2-0.9v-1.6c0-0.5-0.1-0.9,0.7-1.2c0,0,2.9-1,3-1.1c1.4,0.1,2.6,0.2,2.6,1.8v2.1
			l-1.2,0.9h4.2l-1.2-0.9L145.1,84.9L145.1,84.9z"/>
	</g>
	<g>
		<g>
			<polygon fill="#231F20" points="473.4,51.3 473.6,51.3 473.6,49.4 474.4,49.4 474.4,49.2 472.6,49.2 472.6,49.4 473.4,49.4 			
				"/>
			<polygon fill="#231F20" points="477,49.2 477.3,49.2 477.3,51.3 477.1,51.3 477.1,49.5 477.1,49.5 476.2,51.3 476,51.3 
				475.1,49.5 475.1,49.5 475.1,51.3 474.9,51.3 474.9,49.2 475.2,49.2 476.1,51 			"/>
			<path fill="#D2D3D3" d="M453.1,47.5c0.8-1.1,1.7-2.2,2.7-3.3c1-1,2.1-2,3.2-2.8l-1.2,4.7L453.1,47.5L453.1,47.5z"/>
			<path fill="#5A5B5D" d="M461.3,49.5c-1.4-0.1-2.8-0.4-4.2-0.7c-1.4-0.4-2.7-0.8-4-1.3l4.7-1.3L461.3,49.5L461.3,49.5z"/>
			<path fill="#929497" d="M459,41.4c0.6,1.3,1.1,2.6,1.4,4c0.4,1.4,0.7,2.8,0.9,4.2l-3.5-3.4L459,41.4L459,41.4z"/>
			<path fill="#929497" d="M451.4,57.2c-0.8-1.1-1.6-2.3-2.3-3.6c-0.7-1.3-1.2-2.6-1.7-3.9l4.1,2.6L451.4,57.2L451.4,57.2z"/>
			<path fill="#5A5B5D" d="M455.9,50.1c-0.6,1.3-1.2,2.5-2,3.7c-0.8,1.2-1.6,2.4-2.5,3.4l0.2-4.9L455.9,50.1L455.9,50.1z"/>
			<path fill="#D2D3D3" d="M447.4,49.8c1.4-0.2,2.8-0.2,4.2-0.2c1.4,0,2.9,0.2,4.2,0.4l-4.3,2.3L447.4,49.8L447.4,49.8z"/>
			<path fill="#5A5B5D" d="M460.2,61.8c-1.3,0.4-2.7,0.8-4.1,1c-1.4,0.2-2.8,0.4-4.2,0.4l3.7-3.1L460.2,61.8L460.2,61.8z"/>
			<path fill="#929497" d="M454.7,55.3c1,0.9,2,1.9,2.9,3c0.9,1.1,1.8,2.3,2.5,3.4l-4.6-1.7L454.7,55.3L454.7,55.3z"/>
			<path fill="#D2D3D3" d="M451.8,63.3c0.3-1.4,0.7-2.7,1.2-4.1c0.5-1.4,1.1-2.7,1.7-3.9l0.8,4.8L451.8,63.3L451.8,63.3z"/>
			<path fill="#929497" d="M467.2,54.9c0,1.4-0.1,2.8-0.3,4.2c-0.2,1.4-0.5,2.8-0.9,4.1l-1.8-4.5L467.2,54.9L467.2,54.9z"/>
			<path fill="#D2D3D3" d="M459.4,58.1c1.2-0.7,2.5-1.3,3.8-1.9c1.3-0.5,2.7-1,4-1.3l-3,3.9L459.4,58.1L459.4,58.1z"/>
			<path fill="#5A5B5D" d="M466,63.3c-1.2-0.7-2.4-1.5-3.5-2.4c-1.1-0.9-2.2-1.8-3.1-2.9l4.8,0.7L466,63.3L466,63.3z"/>
			<path fill="#929497" d="M462.8,46c1.3,0.4,2.6,1,3.9,1.6c1.3,0.6,2.5,1.3,3.7,2.1l-4.9,0.3L462.8,46L462.8,46z"/>
			<path fill="#D2D3D3" d="M463.4,54.5c-0.3-1.4-0.5-2.8-0.6-4.2c-0.1-1.4-0.1-2.9,0-4.2l2.7,4.1L463.4,54.5L463.4,54.5z"/>
			<path fill="#5A5B5D" d="M470.5,49.8c-1,0.9-2.1,1.8-3.3,2.6c-1.2,0.8-2.4,1.5-3.7,2.1l2.1-4.4L470.5,49.8L470.5,49.8z"/>
			<g>
				<polygon fill="#231F20" points="382.4,49 383.7,49 383.7,58 382.7,58 382.7,50.2 382.7,50.2 378.7,58 377.9,58 373.9,50.2 
					373.9,50.2 373.9,58 373,58 373,49 374.3,49 378.3,56.8 				"/>
				<path fill="#231F20" d="M247.7,55.1c0,0.9,0.3,1.6,0.8,2.1c0.7,0.7,1.9,1,3.5,1c0.9,0,3.8-0.2,3.8-2.7c0-2.2-2-2.4-3.7-2.5l0,0
					c-1.8-0.2-3.1-0.4-3.1-1.6c0-0.6,0.3-1,1-1.3c0.7-0.3,1.4-0.4,2.1-0.4c0.6,0,1.6,0.1,2.2,0.7c0.3,0.3,0.4,0.7,0.4,1.1l0.9,0
					c0-0.7-0.2-1.3-0.6-1.7c-0.8-0.8-2-0.9-3-0.9c-1.3,0-2.6,0.3-3.3,1.1c-0.4,0.4-0.6,0.9-0.6,1.5c0,2.1,2.2,2.3,3.9,2.5
					c0.8,0.1,1.6,0.1,2.1,0.4c0.6,0.3,0.9,0.7,0.9,1.4c0,0.4-0.1,0.8-0.4,1c-0.7,0.7-2,0.7-2.5,0.7c-1.2,0-2.2-0.3-2.7-0.8
					c-0.4-0.4-0.6-0.8-0.6-1.5L247.7,55.1L247.7,55.1z M257.3,49v0.9c0,0,3.1,0,3.5,0c0,0.4,0,8.1,0,8.1h0.9c0,0,0-7.7,0-8.1
					c0.4,0,3.5,0,3.5,0V49H257.3L257.3,49z M269.5,49l-4.1,9h1c0,0,1.2-2.6,1.3-2.8c0.2,0,4.3,0,4.5,0c0.1,0.2,1.3,2.8,1.3,2.8h1
					l-4.1-9H269.5L269.5,49z M270,50.3c0.3,0.6,1.7,3.7,1.9,4.1c-0.5,0-3.3,0-3.7,0C268.3,53.9,269.7,50.9,270,50.3L270,50.3z
					 M277.1,49v9h0.9c0,0,0-3.6,0-3.9c0.4,0,3.6,0,3.6,0c1.6,0,2,0.3,2,1.7c0,1.5,0.1,1.9,0.3,2.1l0.1,0.1h1l-0.2-0.3
					c-0.2-0.3-0.2-0.8-0.2-2.3c0-0.9-0.5-1.5-1.3-1.8c1-0.4,1.4-1.4,1.4-2.1c0-1.7-1-2.5-3.1-2.5L277.1,49L277.1,49z M281.8,49.9
					c1.4,0,2.1,0.5,2.1,1.6c0,1.2-0.7,1.8-2.2,1.8c0,0-3.2,0-3.6,0c0-0.3,0-3,0-3.3C278.4,49.9,281.8,49.9,281.8,49.9L281.8,49.9z
					 M295.5,49l-4.1,9h1c0,0,1.2-2.6,1.3-2.8c0.2,0,4.3,0,4.5,0c0.1,0.2,1.3,2.8,1.3,2.8h1l-4.1-9H295.5L295.5,49z M295.9,50.3
					c0.3,0.6,1.7,3.7,1.9,4.1c-0.5,0-3.3,0-3.7,0C294.3,53.9,295.6,50.9,295.9,50.3L295.9,50.3z M328.2,49l-4.1,9h1
					c0,0,1.2-2.6,1.3-2.8c0.2,0,4.3,0,4.5,0c0.1,0.2,1.3,2.8,1.3,2.8h1l-4.1-9H328.2L328.2,49z M328.7,50.3c0.3,0.6,1.7,3.7,1.9,4.1
					c-0.5,0-3.3,0-3.7,0C327,53.9,328.4,50.9,328.7,50.3L328.7,50.3z M303.4,49v9h6.5v-0.9c0,0-5.2,0-5.6,0c0-0.4,0-8.1,0-8.1
					L303.4,49L303.4,49z M311.9,49v9h6.5v-0.9c0,0-5.2,0-5.5,0c0-0.4,0-8.1,0-8.1L311.9,49L311.9,49z M320.3,49v9h0.9v-9H320.3
					L320.3,49z M343.2,49c0,0,0,6.6,0,7.5c-0.6-0.7-6.5-7.5-6.5-7.5h-0.9v9h0.9c0,0,0-6.6,0-7.5c0.6,0.7,6.5,7.5,6.5,7.5h0.9v-9
					H343.2L343.2,49z M359.4,49v9h7.3v-0.9c0,0-6,0-6.3,0c0-0.3,0-3,0-3.3c0.4,0,6,0,6,0v-0.8c0,0-5.6,0-6,0c0-0.3,0-2.7,0-3
					c0.4,0,6.2,0,6.2,0V49L359.4,49L359.4,49z M347,53.5c0,2.8,2,4.7,4.9,4.7c2.7,0,4.3-1.8,4.5-3.6l0-0.2h-1l0,0.2
					c-0.3,1.7-1.7,2.8-3.6,2.8c-2.8,0-3.9-2-3.9-3.8c0-2.3,1.6-3.8,3.9-3.8c1.8,0,3,0.8,3.4,2.3l0,0.2h1l-0.1-0.2
					c-0.4-1.9-2-3.1-4.4-3.1C348.6,48.8,347,51.3,347,53.5L347,53.5z"/>
				<path fill="#231F20" d="M238,49h-0.9l-4.1,9h1c0,0,1.2-2.6,1.3-2.8c0.2,0,4.3,0,4.5,0c0.1,0.2,1.3,2.8,1.3,2.8h1L238,49L238,49z
					 M235.7,54.4c0.2-0.4,1.6-3.5,1.9-4.1c0.3,0.6,1.7,3.7,1.9,4.1C239,54.4,236.2,54.4,235.7,54.4L235.7,54.4z"/>
				<path fill="#231F20" d="M386.6,49v9h7.3v-0.9c0,0-6,0-6.3,0c0-0.3,0-3,0-3.3c0.4,0,6,0,6,0v-0.9c0,0-5.6,0-6,0c0-0.3,0-2.7,0-3
					c0.4,0,6.2,0,6.2,0V49L386.6,49L386.6,49z"/>
				<polygon fill="#231F20" points="406.1,49 407.4,49 407.4,58 406.5,58 406.5,50.2 406.4,50.2 402.5,58 401.6,58 397.6,50.2 
					397.6,50.2 397.6,58 396.7,58 396.7,49 398,49 402,56.8 				"/>
				<path fill="#231F20" d="M411.3,49.9h4c1,0,1.7,0.4,1.7,1.5c0,1.2-0.8,1.6-2.1,1.6h-3.7L411.3,49.9L411.3,49.9z M410.3,58h5
					c1.4,0,3-0.7,3-2.6c0-1.2-0.7-2-1.9-2.2v0c1.1-0.3,1.5-1.1,1.5-1.9c0-1.3-0.7-2.3-2.5-2.3h-5.1L410.3,58L410.3,58z M411.3,53.8
					h4.1c1.1,0,1.9,0.4,1.9,1.7c0,1.2-0.9,1.7-2.1,1.7h-3.9L411.3,53.8L411.3,53.8z"/>
				<path fill="#231F20" d="M421.2,49v9h7.3v-0.9c0,0-6,0-6.3,0c0-0.3,0-3,0-3.3c0.4,0,6,0,6,0v-0.9c0,0-5.6,0-6,0c0-0.3,0-2.7,0-3
					c0.4,0,6.2,0,6.2,0V49L421.2,49L421.2,49z"/>
				<path fill="#231F20" d="M439,57.7c-0.1-0.3-0.2-0.8-0.2-2.3c0-0.9-0.5-1.5-1.3-1.8c1-0.4,1.4-1.4,1.4-2.1c0-1.7-1-2.5-3.1-2.5
					h-4.6v9h0.9c0,0,0-3.5,0-3.9c0.4,0,3.6,0,3.6,0c1.6,0,2,0.3,2,1.7c0,1.5,0.1,1.9,0.3,2.1l0.1,0.1h1L439,57.7L439,57.7z
					 M435.8,53.2c0,0-3.2,0-3.6,0c0-0.3,0-3,0-3.3c0.4,0,3.7,0,3.7,0c1.4,0,2.1,0.5,2.1,1.6C438,52.6,437.3,53.2,435.8,53.2
					L435.8,53.2z"/>
			</g>
		</g>
	</g>
	<line fill="none" stroke="#EAEAEA" stroke-width="3" stroke-miterlimit="10" x1="213.5" y1="32.1" x2="213.5" y2="70.2"/>
</g>
</svg>
