<?xml version="1.0" encoding="utf-8"?>
<!-- Generator: Adobe Illustrator 18.1.0, SVG Export Plug-In . SVG Version: 6.00 Build 0)  -->
<svg version="1.1" id="Layer_1" xmlns="http://www.w3.org/2000/svg" xmlns:xlink="http://www.w3.org/1999/xlink" x="0px" y="0px"
	 viewBox="0 0 90 90" enable-background="new 0 0 90 90" xml:space="preserve">
<g>
	<defs>
		<rect id="SVGID_1_" width="90" height="90"/>
	</defs>
	<clipPath id="SVGID_2_">
		<use xlink:href="#SVGID_1_"  overflow="visible"/>
	</clipPath>
	<path clip-path="url(#SVGID_2_)" fill="#A7AAAA" d="M37.3,74.6c8.8,0,17.5-3.1,24.5-9.2L86.5,90l3.5-3.5L65.3,61.8
		c12.8-14.6,12.3-36.9-1.7-50.9C56.4,3.6,46.8,0,37.3,0c-9.5,0-19.1,3.6-26.4,10.9c-14.6,14.6-14.6,38.2,0,52.7
		C18.2,70.9,27.7,74.6,37.3,74.6 M14.4,14.4C20.5,8.3,28.6,5,37.3,5S54,8.3,60.1,14.4c12.6,12.6,12.6,33.1,0,45.7
		c-6.1,6.1-14.2,9.5-22.8,9.5c-8.6,0-16.7-3.4-22.8-9.5C1.8,47.5,1.8,27,14.4,14.4"/>
</g>
</svg>
