<?xml version="1.0" encoding="utf-8"?>
<!-- Generator: Adobe Illustrator 19.0.0, SVG Export Plug-In . SVG Version: 6.00 Build 0)  -->
<svg version="1.1" id="Layer_1" xmlns="http://www.w3.org/2000/svg" xmlns:xlink="http://www.w3.org/1999/xlink" x="0px" y="0px"
	 viewBox="-1831.8 171.1 844.5 658.5" style="enable-background:new -1831.8 171.1 844.5 658.5;" xml:space="preserve">
<style type="text/css">
	.st0{fill:none;stroke:#ffffff ;stroke-width:10;stroke-miterlimit:10;}
</style>
<circle class="st0" cx="-1396.6" cy="492.9" r="249.5"/>
<g>
	<g>
		<g>
			<path d="M-1464.4,518.6c-7.6,0-14.7-3-20.1-8.3c-5.4-5.4-8.3-12.5-8.3-20.1c0-7.6,3-14.7,8.3-20.1c5.4-5.4,12.5-8.3,20.1-8.3
				s14.7,3,20.1,8.3c5.4,5.4,8.3,12.5,8.3,20.1c0,7.6-3,14.7-8.3,20.1C-1449.7,515.7-1456.8,518.6-1464.4,518.6z M-1464.4,472.2
				c-4.8,0-9.4,1.9-12.8,5.3c-3.4,3.4-5.3,7.9-5.3,12.8s1.9,9.4,5.3,12.8c3.4,3.4,7.9,5.3,12.8,5.3c4.8,0,9.4-1.9,12.8-5.3
				c3.4-3.4,5.3-7.9,5.3-12.8s-1.9-9.4-5.3-12.8C-1455.1,474.1-1459.6,472.2-1464.4,472.2z"/>
		</g>
		<g>
			<path d="M-1398.4,584.6c-7.6,0-14.7-3-20.1-8.3c-5.4-5.4-8.3-12.5-8.3-20.1c0-7.6,3-14.7,8.3-20.1c5.4-5.4,12.5-8.3,20.1-8.3
				s14.7,3,20.1,8.3c5.4,5.4,8.3,12.5,8.3,20.1c0,7.6-3,14.7-8.3,20.1C-1383.7,581.7-1390.9,584.6-1398.4,584.6z M-1398.4,538.2
				c-4.8,0-9.4,1.9-12.8,5.3c-3.4,3.4-5.3,7.9-5.3,12.8c0,4.8,1.9,9.4,5.3,12.8c3.4,3.4,7.9,5.3,12.8,5.3c4.8,0,9.4-1.9,12.8-5.3
				c3.4-3.4,5.3-7.9,5.3-12.8c0-4.8-1.9-9.4-5.3-12.8C-1389.1,540.1-1393.6,538.2-1398.4,538.2z"/>
		</g>
		<g>
			<path d="M-1398.4,452.7c-7.6,0-14.7-3-20.1-8.3c-5.4-5.4-8.3-12.5-8.3-20.1s3-14.7,8.3-20.1c5.4-5.4,12.5-8.3,20.1-8.3
				s14.7,3,20.1,8.3c5.4,5.4,8.3,12.5,8.3,20.1s-3,14.7-8.3,20.1C-1383.7,449.7-1390.9,452.7-1398.4,452.7z M-1398.4,406.2
				c-4.8,0-9.4,1.9-12.8,5.3c-3.4,3.4-5.3,7.9-5.3,12.8s1.9,9.4,5.3,12.8c3.4,3.4,7.9,5.3,12.8,5.3c4.8,0,9.4-1.9,12.8-5.3
				c3.4-3.4,5.3-7.9,5.3-12.8s-1.9-9.4-5.3-12.8C-1389.1,408.1-1393.6,406.2-1398.4,406.2z"/>
		</g>
		<g>
			<path d="M-1332.5,518.6c-7.6,0-14.7-3-20.1-8.3c-5.4-5.4-8.3-12.5-8.3-20.1c0-7.6,3-14.7,8.3-20.1c5.4-5.4,12.5-8.3,20.1-8.3
				c7.6,0,14.7,3,20.1,8.3c5.4,5.4,8.3,12.5,8.3,20.1c0,7.6-3,14.7-8.3,20.1C-1317.8,515.7-1324.9,518.6-1332.5,518.6z
				 M-1332.5,472.2c-4.8,0-9.4,1.9-12.8,5.3c-3.4,3.4-5.3,7.9-5.3,12.8s1.9,9.4,5.3,12.8c3.4,3.4,7.9,5.3,12.8,5.3
				c4.8,0,9.4-1.9,12.8-5.3c3.4-3.4,5.3-7.9,5.3-12.8s-1.9-9.4-5.3-12.8C-1323.1,474.1-1327.6,472.2-1332.5,472.2z"/>
		</g>
		<g>
			<path d="M-1398.4,614.1c-33.1,0-64.2-12.9-87.6-36.3s-36.3-54.5-36.3-87.6s12.9-64.2,36.3-87.6c23.4-23.4,54.5-36.3,87.6-36.3
				s64.2,12.9,87.6,36.3s36.3,54.5,36.3,87.6s-12.9,64.2-36.3,87.6S-1365.4,614.1-1398.4,614.1z M-1398.4,376.8
				c-30.3,0-58.8,11.8-80.3,33.2s-33.2,49.9-33.2,80.3c0,30.3,11.8,58.8,33.2,80.3c21.4,21.4,49.9,33.2,80.3,33.2
				s58.8-11.8,80.3-33.2c21.4-21.4,33.2-49.9,33.2-80.3c0-30.3-11.8-58.8-33.2-80.3C-1339.6,388.6-1368.1,376.8-1398.4,376.8z"/>
		</g>
		<g>
			<path d="M-1398.4,505.7c-4.1,0-8-1.6-10.9-4.5c-6-6-6-15.9,0-21.9c2.9-2.9,6.8-4.5,10.9-4.5c4.1,0,8,1.6,10.9,4.5
				c6,6,6,15.9,0,21.9C-1390.4,504.1-1394.3,505.7-1398.4,505.7z M-1398.4,485.1c-1.4,0-2.7,0.5-3.7,1.5c-2,2-2,5.3,0,7.3
				c1.9,1.9,5.3,1.9,7.3,0c2-2,2-5.3,0-7.3C-1395.8,485.6-1397.1,485.1-1398.4,485.1z"/>
		</g>
	</g>
	<g>
		<path d="M-1279.8,614.1h-116.1c-2.8,0-5.2-2.3-5.2-5.2c0-2.8,2.3-5.2,5.2-5.2h116.1c2.8,0,5.2,2.3,5.2,5.2
			C-1274.6,611.8-1276.9,614.1-1279.8,614.1z"/>
	</g>
</g>
</svg>
