<?xml version="1.0" encoding="utf-8"?>
<!-- Generator: Adobe Illustrator 18.1.0, SVG Export Plug-In . SVG Version: 6.00 Build 0)  -->
<svg version="1.1" id="Layer_1" xmlns="http://www.w3.org/2000/svg" xmlns:xlink="http://www.w3.org/1999/xlink" x="0px" y="0px"
	 viewBox="0 166.3 500 333.7" enable-background="new 0 166.3 500 333.7" xml:space="preserve">
<rect x="-6.4" y="77.1" display="none" fill="#821618" width="514" height="356.1"/>
<g>
	<g>
		<g>
			<defs>
				<rect id="SVGID_1_" x="0" y="166.3" width="500" height="333.7"/>
			</defs>
			<clipPath id="SVGID_2_">
				<use xlink:href="#SVGID_1_"  overflow="visible"/>
			</clipPath>
			<path clip-path="url(#SVGID_2_)" fill="#FFFFFF" d="M276.7,374.2C372,315.4,440.1,263.4,478,221.3c15.4-17.1,18.9-35.2,20.2-43.3
				l0,321.8H38.6C76.7,488.7,193.8,425.3,276.7,374.2"/>
		</g>
	</g>
	<g>
		<g>
			<defs>
				<path id="SVGID_3_" d="M497.9,166.3c0,3.2-3.6,18.1-29.4,42.2c-53.5,49.9-190.5,146.5-344.1,207.7c-3.7,1.5-1.7,3.6,3,4.2
					c3.4,1.2,10.1,2.2,17.1,3.1C293.9,354.6,414,268.9,472.3,212.2c23.5-22.8,25.6-39.5,25.7-43.9C498,167,497.9,166.3,497.9,166.3z
					"/>
			</defs>
			<clipPath id="SVGID_4_">
				<use xlink:href="#SVGID_3_"  overflow="visible"/>
			</clipPath>
			
				<linearGradient id="SVGID_5_" gradientUnits="userSpaceOnUse" x1="2.435445e-008" y1="-2378.0886" x2="1" y2="-2378.0886" gradientTransform="matrix(375.6115 0 0 375.6115 122.4427 893532.25)">
				<stop  offset="0" style="stop-color:#5F8C4D"/>
				<stop  offset="0.6679" style="stop-color:#6C895C"/>
				<stop  offset="1" style="stop-color:#A0B68D"/>
			</linearGradient>
			<rect x="120.7" y="166.3" clip-path="url(#SVGID_4_)" fill="url(#SVGID_5_)" width="377.4" height="257.2"/>
		</g>
	</g>
	<g>
		<g>
			<defs>
				<rect id="SVGID_6_" x="0" y="166.3" width="500" height="333.7"/>
			</defs>
			<clipPath id="SVGID_7_">
				<use xlink:href="#SVGID_6_"  overflow="visible"/>
			</clipPath>
			<path clip-path="url(#SVGID_7_)" fill="#FFCB05" d="M498.1,174.6c-0.4,4.1-6.2,27.2-25,45c-67.6,63.9-207.1,162-368.6,236.8
				c-6.7-0.5-14.1-1.4-16.7-2.3c-4.8-0.5-7.2-3.1-3.2-4.6c177-72.1,321.8-173.2,387.8-237.3c24.4-23.7,25.7-40.8,25.7-44.4
				C498.1,167.8,498.3,170.5,498.1,174.6"/>
		</g>
		<g>
			<defs>
				<rect id="SVGID_8_" x="0" y="166.3" width="500" height="333.7"/>
			</defs>
			<clipPath id="SVGID_9_">
				<use xlink:href="#SVGID_8_"  overflow="visible"/>
			</clipPath>
			<path clip-path="url(#SVGID_9_)" fill="#C43C30" d="M498.1,174.4c-0.3,3.6-6,27.1-25.1,45.2C391.2,297,204.1,424.4,0,500h38.3
				c38.2-11.3,155.4-74.6,238.3-125.8c95.3-58.8,163.4-110.8,201.3-152.9C500,196.9,498.1,174.4,498.1,174.4"/>
		</g>
	</g>
</g>
<g display="none">
	<g display="inline">
		<defs>
			<rect id="SVGID_10_" x="0" y="83.1" width="500" height="333.7"/>
		</defs>
		<clipPath id="SVGID_11_">
			<use xlink:href="#SVGID_10_"  overflow="visible"/>
		</clipPath>
		<polyline clip-path="url(#SVGID_11_)" fill="none" stroke="#000000" stroke-width="0.25" points="498.2,94.9 498.2,416.7 
			38.5,416.7 		"/>
	</g>
</g>
</svg>
