<?xml version="1.0" encoding="utf-8"?>
<!-- Generator: Adobe Illustrator 18.1.0, SVG Export Plug-In . SVG Version: 6.00 Build 0)  -->
<!DOCTYPE svg PUBLIC "-//W3C//DTD SVG 1.1//EN" "http://www.w3.org/Graphics/SVG/1.1/DTD/svg11.dtd">
<svg version="1.1" id="Ebene_1" xmlns="http://www.w3.org/2000/svg" xmlns:xlink="http://www.w3.org/1999/xlink" x="0px" y="0px"
	 width="24px" height="24px" viewBox="-285 408.9 24 24" enable-background="new -285 408.9 24 24" xml:space="preserve">
<g>
	<g>
		<path fill="#003D4E" d="M-278,420.7c-1.5-0.9-4-2.4-4.4-2.7c-0.6-0.4-1.2-0.4-1.2-0.4l-1.4,0.6l2.6,4.1l-2.4,0.9l0.2,0.6h8.4
			l1.8-0.6c-0.2,0.3-0.3,0.6-0.2,0.8c0.3,0.8,2,0.8,3.8,0.2c1.8-0.7,1.9-1.4,1.6-2.2l0,0l0,0l-0.2-0.6l1.5-0.5l-1.1-3.5L-278,420.7z
			"/>
	</g>
	<g>
		<path fill="#003D4E" d="M-267.2,416.7l-0.3,0.1l1.2,3.4l1.8-0.7c1.9-0.6,3.6-2.2,3.5-2.6C-261.3,416.1-264.8,415.9-267.2,416.7z"
			/>
	</g>
</g>
</svg>
