<?xml version="1.0" encoding="utf-8"?>
<!-- Generator: Adobe Illustrator 18.1.0, SVG Export Plug-In . SVG Version: 6.00 Build 0)  -->
<!DOCTYPE svg PUBLIC "-//W3C//DTD SVG 1.1//EN" "http://www.w3.org/Graphics/SVG/1.1/DTD/svg11.dtd">
<svg version="1.1" id="Ebene_1" xmlns="http://www.w3.org/2000/svg" xmlns:xlink="http://www.w3.org/1999/xlink" x="0px" y="0px"
	 width="500px" height="200px" viewBox="122 29 500 200" enable-background="new 122 29 500 200" xml:space="preserve">
<g>
	<path fill="#E2E2E1" d="M357.6,201c0.6,0,1.2,0,1.8,0c1.7-19.6,18.2-35,38.2-35c11,0,21,4.7,28,12.2c5.6-5.9,13.5-9.6,22.3-9.6
		c17,0,30.7,13.8,30.7,30.7c0,0.6,0,1.2,0,1.7l0,0c17.6,0,32.4,11.8,37,28h104.8c-4.9-18.3-20.9-32.1-40.4-33.6
		c-2.2-33.5-30-60.1-64.1-60.1c-14.2,0-27.4,4.6-38,12.5c-7.2-24.4-29.6-42.2-56.3-42.2c-31.8,0-57.6,25.2-58.7,56.7
		c-1.2-0.1-2.5-0.2-3.7-0.2c-21,0-38.7,14.3-43.9,33.7c-17.8,2.8-32.2,16-36.8,33.2h42.2C325.2,212.8,340,201,357.6,201z"/>
	<g>
		<path fill="#C3C2C3" d="M499.2,192h-30.3c-0.9,0-1.6,0.7-1.6,1.6v10.2v4.4V227c0,1.1,0.9,2,2,2h29.6c1.1,0,2-0.9,2-2v-18.8v-4.4
			v-10.2C500.8,192.7,500.1,192,499.2,192z"/>
		<path fill="#C3C2C3" d="M499.2,171.6h-1v-17.4c0-4.4-3.6-8-8-8h-11.8c-4.4,0-8,3.6-8,8v17.4h-1.5c-0.9,0-1.6,0.7-1.6,1.6v14.6
			c0,0.9,0.7,1.6,1.6,1.6h30.3c0.9,0,1.6-0.7,1.6-1.6v-14.6C500.8,172.3,500.1,171.6,499.2,171.6z"/>
		<path fill="#C3C2C3" d="M464.3,185.1h-5.2c-0.7,0-1.3,0.6-1.3,1.3v7.6c0,0.7,0.2,1.8,0.4,2.5L462,209c0.2,0.7,1,1.2,1.7,1.2h0.6
			c0.7,0,1.3-0.6,1.3-1.3v-22.6C465.6,185.6,465,185.1,464.3,185.1z"/>
		<path fill="#C3C2C3" d="M509,185.1h-5.2c-0.7,0-1.3,0.6-1.3,1.3V209c0,0.7,0.6,1.3,1.3,1.3h0.6c0.7,0,1.4-0.6,1.7-1.2l3.8-12.5
			c0.2-0.7,0.4-1.8,0.4-2.5v-7.6C510.3,185.6,509.7,185.1,509,185.1z"/>
	</g>
	<g>
		<path fill="#C3C2C3" d="M439.1,192h-30.3c-0.9,0-1.6,0.7-1.6,1.6v10.2v4.4V227c0,1.1,0.9,2,2,2h29.6c1.1,0,2-0.9,2-2v-18.8v-4.4
			v-10.2C440.7,192.7,440,192,439.1,192z"/>
		<path fill="#C3C2C3" d="M439.1,172.3H438v-18.1c0-4.4-3.6-8-8-8h-11.8c-4.4,0-8,3.6-8,8v18.1h-1.4c-0.9,0-1.6,0.7-1.6,1.6v14.6
			c0,0.9,0.7,1.6,1.6,1.6h30.3c0.9,0,1.6-0.7,1.6-1.6v-14.6C440.7,173,440,172.3,439.1,172.3z"/>
		<path fill="#C3C2C3" d="M404.2,185.1H399c-0.7,0-1.3,0.6-1.3,1.3v7.6c0,0.7,0.2,1.8,0.4,2.5l3.8,12.5c0.2,0.7,1,1.2,1.7,1.2h0.6
			c0.7,0,1.3-0.6,1.3-1.3v-22.6C405.5,185.6,405,185.1,404.2,185.1z"/>
		<path fill="#C3C2C3" d="M448.9,185.1h-5.2c-0.7,0-1.3,0.6-1.3,1.3V209c0,0.7,0.6,1.3,1.3,1.3h0.6c0.7,0,1.4-0.6,1.7-1.2l3.8-12.5
			c0.2-0.7,0.4-1.8,0.4-2.5v-7.6C450.2,185.6,449.6,185.1,448.9,185.1z"/>
	</g>
	<g>
		<path fill="#C3C2C3" d="M379,192h-30.3c-0.9,0-1.6,0.7-1.6,1.6v10.2v4.4V227c0,1.1,0.9,2,2,2h29.6c1.1,0,2-0.9,2-2v-18.8v-4.4
			v-10.2C380.6,192.7,379.9,192,379,192z"/>
		<path fill="#C3C2C3" d="M379,172.1h-1v-17.9c0-4.4-3.6-8-8-8h-11.8c-4.4,0-8,3.6-8,8v17.9h-1.6c-0.9,0-1.6,0.7-1.6,1.6v14.6
			c0,0.9,0.7,1.6,1.6,1.6h30.3c0.9,0,1.6-0.7,1.6-1.6v-14.6C380.6,172.8,379.9,172.1,379,172.1z"/>
		<path fill="#C3C2C3" d="M344.2,185.1H339c-0.7,0-1.3,0.6-1.3,1.3v7.6c0,0.7,0.2,1.8,0.4,2.5l3.8,12.5c0.2,0.7,1,1.2,1.7,1.2h0.6
			c0.7,0,1.3-0.6,1.3-1.3v-22.6C345.4,185.6,344.9,185.1,344.2,185.1z"/>
		<path fill="#C3C2C3" d="M388.8,185.1h-5.2c-0.7,0-1.3,0.6-1.3,1.3V209c0,0.7,0.6,1.3,1.3,1.3h0.6c0.7,0,1.4-0.6,1.7-1.2l3.8-12.5
			c0.2-0.7,0.4-1.8,0.4-2.5v-7.6C390.1,185.6,389.5,185.1,388.8,185.1z"/>
	</g>
	<path fill="#003D4E" d="M496.8,155.3c0,0.5-0.1,1-0.2,1.4c-0.4,0.1-0.9,0.2-1.4,0.2c-2.7,0-4.8-2.2-4.8-4.8c0-0.5,0.1-1,0.2-1.4
		c0.4-0.1,0.9-0.2,1.4-0.2C494.6,150.4,496.8,152.6,496.8,155.3z"/>
	<g>
		<path fill="#003D4E" d="M420.1,130.4c0,2.2,1.8,3.9,3.9,3.9c2.2,0,3.9-1.7,3.9-3.9s-1.7-3.9-3.9-3.9
			C421.8,126.6,420.1,128.3,420.1,130.4z"/>
		<path fill="#003D4E" d="M433.2,121.8c-2.4-2.4-5.7-3.8-9.2-3.8s-6.8,1.4-9.2,3.8l2.4,2.4c1.8-1.8,4.2-2.8,6.8-2.8s4.9,1,6.7,2.8
			L433.2,121.8z"/>
		<path fill="#003D4E" d="M424,113.6c4.5,0,8.8,1.8,12,5l2.4-2.4c-3.8-3.8-9-6-14.4-6c-5.4,0-10.6,2.1-14.4,6l2.4,2.4
			C415.2,115.4,419.5,113.6,424,113.6z"/>
	</g>
	<g>
		<circle fill="#003D4E" cx="363.9" cy="130.4" r="3.9"/>
		<path fill="#003D4E" d="M373.1,121.8c-2.4-2.4-5.7-3.8-9.2-3.8s-6.8,1.4-9.2,3.8l2.4,2.4c1.8-1.8,4.2-2.8,6.8-2.8s4.9,1,6.7,2.8
			L373.1,121.8z"/>
		<path fill="#003D4E" d="M363.9,113.6c4.5,0,8.8,1.8,12,5l2.4-2.4c-3.8-3.8-9-6-14.4-6s-10.6,2.1-14.4,6l2.4,2.4
			C355.1,115.4,359.4,113.6,363.9,113.6z"/>
	</g>
	<g>
		<path fill="#003D4E" d="M480.2,130.4c0,2.2,1.7,3.9,3.9,3.9c2.2,0,3.9-1.7,3.9-3.9s-1.7-3.9-3.9-3.9
			C481.9,126.6,480.2,128.3,480.2,130.4z"/>
		<path fill="#003D4E" d="M493.2,121.8c-2.4-2.4-5.7-3.8-9.2-3.8s-6.8,1.4-9.2,3.8l2.4,2.4c1.8-1.8,4.2-2.8,6.8-2.8s4.9,1,6.7,2.8
			L493.2,121.8z"/>
		<path fill="#003D4E" d="M484.1,113.6c4.5,0,8.8,1.8,12,5l2.4-2.4c-3.8-3.8-9-6-14.4-6c-5.4,0-10.6,2.1-14.4,6l2.4,2.4
			C475.3,115.4,479.6,113.6,484.1,113.6z"/>
	</g>
	<path fill="#003D4E" d="M368.9,151.1c0,2.8-2.2,5-5,5l0,0c-2.8,0-5-2.2-5-5v-5c0-2.8,2.2-5,5-5l0,0c2.8,0,5,2.2,5,5V151.1z"/>
	<path fill="#FFFFFF" d="M360.9,151.3c0.5,1.2,1.6,2.1,3,2.1s2.6-0.9,3-2.1H360.9z"/>
	<path fill="#003D4E" d="M429,151.1c0,2.8-2.2,5-5,5l0,0c-2.8,0-5-2.2-5-5v-5c0-2.8,2.2-5,5-5l0,0c2.8,0,5,2.2,5,5V151.1z"/>
	<path fill="#003D4E" d="M489.1,151.1c0,2.8-2.2,5-5,5l0,0c-2.8,0-5-2.2-5-5v-5c0-2.8,2.2-5,5-5l0,0c2.8,0,5,2.2,5,5V151.1z"/>
	<path fill="#FFFFFF" d="M481,151.3c0.5,1.2,1.6,2.1,3,2.1s2.6-0.9,3-2.1H481z"/>
	<g>
		<path fill="#003D4E" d="M374.6,228.6V202l0,0c-0.1-2.3-2-4.1-4.3-4.1c-2.3,0-4.2,1.8-4.2,4.1l2.9,26.6H374.6L374.6,228.6z"/>
		<path fill="#003D4E" d="M353.2,228.6V202l0,0c0.1-2.3,2-4.1,4.3-4.1c2.3,0,4.2,1.8,4.2,4.1l-2.9,26.6H353.2L353.2,228.6z"/>
	</g>
	<g>
		<path fill="#003D4E" d="M434.7,228.6V202l0,0c-0.1-2.3-2-4.1-4.3-4.1s-4.2,1.8-4.2,4.1l2.9,26.6H434.7L434.7,228.6z"/>
		<path fill="#003D4E" d="M413.3,228.6V202l0,0c0.1-2.3,2-4.1,4.3-4.1c2.3,0,4.2,1.8,4.2,4.1l-2.9,26.6H413.3L413.3,228.6z"/>
	</g>
	<g>
		<path fill="#003D4E" d="M494.8,228.6V202l0,0c-0.1-2.3-2-4.1-4.3-4.1c-2.3,0-4.2,1.8-4.2,4.1l2.9,26.6H494.8L494.8,228.6z"/>
		<path fill="#003D4E" d="M473.4,228.6V202l0,0c0.1-2.3,2-4.1,4.3-4.1c2.3,0,4.2,1.8,4.2,4.1l-2.9,26.6H473.4L473.4,228.6z"/>
	</g>
	<path fill="#003D4E" d="M384.1,175.7l-7.8-12.6c-0.8-2.6-3.7-4.6-6.4-4.6h-3.2h-5.8h-3.2c-2.7,0-5.6,2.1-6.4,4.6l-7.8,12.6
		c-1.9,4,1.1,8.4,3.8,10.1l4.8,4.6v0.6c0,1.9,1.5,3.4,3.4,3.4h16.4c1.9,0,3.4-1.5,3.4-3.4v-0.5l4.8-4.6
		C383,184.1,386,179.7,384.1,175.7z"/>
	<path fill="#003D4E" d="M444.2,175.7l-7.8-12.6c-0.8-2.6-3.7-4.6-6.4-4.6h-3.2H421h-3.2c-2.7,0-5.6,2.1-6.4,4.6l-7.8,12.6
		c-1.9,4,1.1,8.4,3.8,10.1l4.8,4.6v0.6c0,1.9,1.5,3.4,3.4,3.4H432c1.9,0,3.4-1.5,3.4-3.4v-0.5l4.8-4.6
		C443.1,184.1,446,179.7,444.2,175.7z"/>
	<path fill="#003D4E" d="M504.2,175.7l-7.8-12.6c-0.8-2.6-3.7-4.6-6.4-4.6h-3.2H481h-3.2c-2.7,0-5.6,2.1-6.4,4.6l-7.8,12.6
		c-1.9,4,1.1,8.4,3.8,10.1l4.8,4.6v0.6c0,1.9,1.5,3.4,3.4,3.4H492c1.9,0,3.4-1.5,3.4-3.4v-0.5l4.8-4.6
		C503.2,184.1,506.1,179.7,504.2,175.7z"/>
	<g>
		<g>
			<path fill="#FFFFFF" d="M353.4,169.3c-0.9,0-1.5,0.7-1.4,1.6l1.3,12c0.1,0.9,0.9,1.6,1.8,1.6h17.8c0.9,0,1.7-0.7,1.8-1.6l1.3-12
				c0.1-0.9-0.6-1.6-1.4-1.6H353.4z M363.9,179.3c-1.2,0-2.1-1-2.1-2.1c0-1.2,1-2.1,2.1-2.1s2.1,1,2.1,2.1S365.1,179.3,363.9,179.3z
				"/>
		</g>
	</g>
	<path fill="#FFFFFF" d="M428.9,183.3c-2.2,0-4-1.8-4-4s1.8-4,4-4h0.5v-3.5c0-1-0.8-1.8-1.8-1.8h-7.2c-1,0-1.8,0.8-1.8,1.8v12
		c0,1,0.8,1.8,1.8,1.8h7.2c1,0,1.8-0.8,1.8-1.8v-0.4L428.9,183.3L428.9,183.3z"/>
	<path fill="#FFFFFF" d="M489.1,176.9l-3.4-11c-0.3-0.9-1.3-1.5-2.2-1.2l-3.8,1.2c-0.9,0.3-1.5,1.3-1.2,2.2l1.1,3.5l1-0.6
		c1.6-0.9,3.6-0.3,4.5,1.2c0.9,1.6,0.3,3.6-1.2,4.5l-2.3,1.3l0.3,1.1c0.3,0.9,1.3,1.5,2.2,1.2l3.8-1.2
		C488.8,178.8,489.4,177.8,489.1,176.9z"/>
</g>
</svg>
